<svg xmlns="http://www.w3.org/2000/svg" xmlns:xlink="http://www.w3.org/1999/xlink" width="1920" zoomAndPan="magnify" viewBox="0 0 1440 809.999993" height="1080" preserveAspectRatio="xMidYMid meet" version="1.0"><defs><clipPath id="ec44cbd2b0"><path d="M 809.441406 498 L 1341.941406 498 L 1341.941406 643 L 809.441406 643 Z M 809.441406 498 " clip-rule="nonzero"/></clipPath></defs><rect x="-144" width="1728" fill="#ffffff" y="-80.999999" height="971.999992" fill-opacity="1"/><rect x="-144" width="1728" fill="#ff5757" y="-80.999999" height="971.999992" fill-opacity="1"/><g clip-path="url(#ec44cbd2b0)"><path fill="#4e725b" d="M 1341.941406 570.789062 C 1341.941406 571.964844 1341.835938 573.144531 1341.621094 574.320312 C 1341.410156 575.5 1341.089844 576.671875 1340.660156 577.847656 C 1340.234375 579.019531 1339.699219 580.1875 1339.0625 581.355469 C 1338.421875 582.519531 1337.675781 583.683594 1336.828125 584.839844 C 1335.976562 585.992188 1335.023438 587.144531 1333.964844 588.285156 C 1332.90625 589.429688 1331.742188 590.566406 1330.480469 591.695312 C 1329.214844 592.820312 1327.847656 593.941406 1326.378906 595.050781 C 1324.910156 596.160156 1323.34375 597.257812 1321.675781 598.347656 C 1320.007812 599.4375 1318.242188 600.515625 1316.378906 601.582031 C 1314.515625 602.644531 1312.558594 603.699219 1310.503906 604.738281 C 1308.449219 605.777344 1306.304688 606.800781 1304.0625 607.8125 C 1301.824219 608.824219 1299.492188 609.820312 1297.070312 610.800781 C 1294.652344 611.78125 1292.144531 612.742188 1289.546875 613.691406 C 1286.953125 614.636719 1284.273438 615.566406 1281.507812 616.476562 C 1278.742188 617.386719 1275.898438 618.28125 1272.972656 619.152344 C 1270.046875 620.027344 1267.042969 620.878906 1263.960938 621.714844 C 1260.878906 622.546875 1257.722656 623.359375 1254.496094 624.152344 C 1251.265625 624.941406 1247.96875 625.710938 1244.601562 626.460938 C 1241.230469 627.207031 1237.796875 627.933594 1234.296875 628.636719 C 1230.796875 629.335938 1227.238281 630.015625 1223.613281 630.671875 C 1219.992188 631.324219 1216.3125 631.957031 1212.574219 632.5625 C 1208.835938 633.167969 1205.046875 633.75 1201.203125 634.304688 C 1197.359375 634.859375 1193.46875 635.390625 1189.53125 635.894531 C 1185.589844 636.398438 1181.609375 636.875 1177.582031 637.324219 C 1173.558594 637.777344 1169.492188 638.199219 1165.390625 638.597656 C 1161.289062 638.996094 1157.152344 639.363281 1152.980469 639.707031 C 1148.8125 640.050781 1144.613281 640.363281 1140.386719 640.648438 C 1136.160156 640.9375 1131.910156 641.195312 1127.636719 641.425781 C 1123.363281 641.652344 1119.070312 641.855469 1114.761719 642.027344 C 1110.449219 642.203125 1106.125 642.34375 1101.789062 642.460938 C 1097.453125 642.578125 1093.109375 642.664062 1088.757812 642.722656 C 1084.40625 642.777344 1080.050781 642.808594 1075.691406 642.808594 C 1071.335938 642.808594 1066.980469 642.777344 1062.628906 642.722656 C 1058.277344 642.664062 1053.933594 642.578125 1049.597656 642.460938 C 1045.261719 642.34375 1040.9375 642.203125 1036.625 642.027344 C 1032.316406 641.855469 1028.023438 641.652344 1023.75 641.425781 C 1019.476562 641.195312 1015.226562 640.9375 1011 640.648438 C 1006.773438 640.363281 1002.574219 640.050781 998.40625 639.707031 C 994.234375 639.363281 990.097656 638.996094 985.996094 638.597656 C 981.894531 638.199219 977.828125 637.777344 973.804688 637.324219 C 969.777344 636.875 965.796875 636.398438 961.855469 635.894531 C 957.917969 635.390625 954.027344 634.859375 950.183594 634.304688 C 946.339844 633.75 942.550781 633.167969 938.8125 632.5625 C 935.074219 631.957031 931.394531 631.324219 927.773438 630.671875 C 924.148438 630.015625 920.589844 629.335938 917.089844 628.636719 C 913.589844 627.933594 910.15625 627.207031 906.785156 626.460938 C 903.417969 625.710938 900.121094 624.941406 896.890625 624.152344 C 893.664062 623.359375 890.507812 622.546875 887.425781 621.714844 C 884.34375 620.878906 881.339844 620.027344 878.414062 619.152344 C 875.488281 618.28125 872.644531 617.386719 869.878906 616.476562 C 867.113281 615.566406 864.433594 614.636719 861.839844 613.691406 C 859.242188 612.742188 856.734375 611.78125 854.316406 610.800781 C 851.894531 609.820312 849.5625 608.824219 847.324219 607.8125 C 845.082031 606.800781 842.9375 605.777344 840.882812 604.738281 C 838.828125 603.699219 836.871094 602.644531 835.007812 601.582031 C 833.144531 600.515625 831.378906 599.4375 829.710938 598.347656 C 828.042969 597.257812 826.476562 596.160156 825.007812 595.050781 C 823.539062 593.941406 822.171875 592.820312 820.90625 591.695312 C 819.644531 590.566406 818.480469 589.429688 817.421875 588.285156 C 816.363281 587.144531 815.410156 585.992188 814.558594 584.839844 C 813.710938 583.683594 812.964844 582.519531 812.324219 581.355469 C 811.6875 580.1875 811.152344 579.019531 810.726562 577.847656 C 810.296875 576.671875 809.976562 575.5 809.765625 574.320312 C 809.550781 573.144531 809.441406 571.964844 809.441406 570.789062 C 809.441406 569.609375 809.550781 568.429688 809.765625 567.253906 C 809.976562 566.078125 810.296875 564.902344 810.726562 563.726562 C 811.152344 562.554688 811.6875 561.386719 812.324219 560.21875 C 812.964844 559.054688 813.710938 557.894531 814.558594 556.738281 C 815.410156 555.582031 816.363281 554.429688 817.421875 553.289062 C 818.480469 552.144531 819.644531 551.007812 820.90625 549.882812 C 822.171875 548.753906 823.539062 547.632812 825.007812 546.523438 C 826.476562 545.414062 828.042969 544.316406 829.710938 543.226562 C 831.378906 542.136719 833.144531 541.058594 835.007812 539.996094 C 836.871094 538.929688 838.828125 537.875 840.882812 536.835938 C 842.9375 535.796875 845.082031 534.773438 847.324219 533.761719 C 849.5625 532.75 851.894531 531.753906 854.316406 530.773438 C 856.734375 529.796875 859.242188 528.832031 861.839844 527.886719 C 864.433594 526.9375 867.113281 526.007812 869.878906 525.097656 C 872.644531 524.1875 875.488281 523.292969 878.414062 522.421875 C 881.339844 521.546875 884.34375 520.695312 887.425781 519.863281 C 890.507812 519.027344 893.664062 518.214844 896.890625 517.425781 C 900.121094 516.632812 903.417969 515.863281 906.785156 515.113281 C 910.15625 514.367188 913.589844 513.640625 917.089844 512.941406 C 920.589844 512.238281 924.148438 511.558594 927.773438 510.90625 C 931.394531 510.25 935.074219 509.621094 938.8125 509.011719 C 942.550781 508.40625 946.339844 507.828125 950.183594 507.269531 C 954.027344 506.714844 957.917969 506.1875 961.855469 505.683594 C 965.796875 505.179688 969.777344 504.699219 973.804688 504.25 C 977.828125 503.796875 981.894531 503.375 985.996094 502.976562 C 990.097656 502.578125 994.234375 502.210938 998.40625 501.867188 C 1002.574219 501.527344 1006.773438 501.210938 1011 500.925781 C 1015.226562 500.640625 1019.476562 500.382812 1023.75 500.152344 C 1028.023438 499.921875 1032.316406 499.71875 1036.625 499.546875 C 1040.9375 499.375 1045.261719 499.230469 1049.597656 499.113281 C 1053.933594 499 1058.277344 498.910156 1062.628906 498.855469 C 1066.980469 498.796875 1071.335938 498.765625 1075.691406 498.765625 C 1080.050781 498.765625 1084.40625 498.796875 1088.757812 498.855469 C 1093.109375 498.910156 1097.453125 499 1101.789062 499.113281 C 1106.125 499.230469 1110.449219 499.375 1114.761719 499.546875 C 1119.070312 499.71875 1123.363281 499.921875 1127.636719 500.152344 C 1131.910156 500.382812 1136.160156 500.640625 1140.386719 500.925781 C 1144.613281 501.210938 1148.8125 501.527344 1152.980469 501.867188 C 1157.152344 502.210938 1161.289062 502.578125 1165.390625 502.976562 C 1169.492188 503.375 1173.558594 503.796875 1177.582031 504.25 C 1181.609375 504.699219 1185.589844 505.179688 1189.53125 505.683594 C 1193.46875 506.1875 1197.359375 506.714844 1201.203125 507.269531 C 1205.046875 507.828125 1208.835938 508.40625 1212.574219 509.011719 C 1216.3125 509.621094 1219.992188 510.25 1223.613281 510.90625 C 1227.238281 511.558594 1230.796875 512.238281 1234.296875 512.941406 C 1237.796875 513.640625 1241.230469 514.367188 1244.601562 515.113281 C 1247.96875 515.863281 1251.265625 516.632812 1254.496094 517.425781 C 1257.722656 518.214844 1260.878906 519.027344 1263.960938 519.863281 C 1267.042969 520.695312 1270.046875 521.546875 1272.972656 522.421875 C 1275.898438 523.292969 1278.742188 524.1875 1281.507812 525.097656 C 1284.273438 526.007812 1286.953125 526.9375 1289.546875 527.886719 C 1292.144531 528.832031 1294.652344 529.796875 1297.070312 530.773438 C 1299.492188 531.753906 1301.824219 532.75 1304.0625 533.761719 C 1306.304688 534.773438 1308.449219 535.796875 1310.503906 536.835938 C 1312.558594 537.875 1314.515625 538.929688 1316.378906 539.996094 C 1318.242188 541.058594 1320.007812 542.136719 1321.675781 543.226562 C 1323.34375 544.316406 1324.910156 545.414062 1326.378906 546.523438 C 1327.847656 547.632812 1329.214844 548.753906 1330.480469 549.882812 C 1331.742188 551.007812 1332.90625 552.144531 1333.964844 553.289062 C 1335.023438 554.429688 1335.976562 555.582031 1336.828125 556.738281 C 1337.675781 557.894531 1338.421875 559.054688 1339.0625 560.21875 C 1339.699219 561.386719 1340.234375 562.554688 1340.660156 563.726562 C 1341.089844 564.902344 1341.410156 566.078125 1341.621094 567.253906 C 1341.835938 568.429688 1341.941406 569.609375 1341.941406 570.789062 Z M 1341.941406 570.789062 " fill-opacity="1" fill-rule="nonzero"/></g><path fill="#c97061" d="M 1313.515625 565.519531 C 1313.515625 566.492188 1313.421875 567.46875 1313.230469 568.445312 C 1313.039062 569.417969 1312.753906 570.390625 1312.371094 571.363281 C 1311.988281 572.332031 1311.511719 573.300781 1310.941406 574.265625 C 1310.371094 575.230469 1309.707031 576.191406 1308.945312 577.148438 C 1308.1875 578.105469 1307.335938 579.058594 1306.390625 580.003906 C 1305.441406 580.953125 1304.40625 581.890625 1303.277344 582.824219 C 1302.144531 583.757812 1300.925781 584.6875 1299.613281 585.605469 C 1298.304688 586.523438 1296.902344 587.433594 1295.414062 588.335938 C 1293.921875 589.238281 1292.347656 590.128906 1290.683594 591.011719 C 1289.019531 591.890625 1287.269531 592.765625 1285.433594 593.625 C 1283.601562 594.484375 1281.683594 595.332031 1279.679688 596.171875 C 1277.679688 597.007812 1275.597656 597.832031 1273.4375 598.644531 C 1271.273438 599.453125 1269.03125 600.253906 1266.714844 601.035156 C 1264.394531 601.820312 1262.003906 602.589844 1259.53125 603.34375 C 1257.0625 604.097656 1254.523438 604.835938 1251.910156 605.558594 C 1249.292969 606.28125 1246.613281 606.988281 1243.859375 607.679688 C 1241.105469 608.367188 1238.289062 609.042969 1235.40625 609.695312 C 1232.523438 610.351562 1229.574219 610.988281 1226.566406 611.609375 C 1223.558594 612.226562 1220.492188 612.828125 1217.363281 613.410156 C 1214.238281 613.988281 1211.058594 614.550781 1207.820312 615.09375 C 1204.585938 615.636719 1201.296875 616.15625 1197.957031 616.660156 C 1194.621094 617.160156 1191.234375 617.640625 1187.800781 618.101562 C 1184.371094 618.5625 1180.894531 619 1177.375 619.417969 C 1173.855469 619.835938 1170.300781 620.230469 1166.703125 620.601562 C 1163.109375 620.976562 1159.476562 621.328125 1155.8125 621.65625 C 1152.148438 621.984375 1148.453125 622.292969 1144.730469 622.574219 C 1141.003906 622.859375 1137.253906 623.117188 1133.480469 623.355469 C 1129.703125 623.59375 1125.90625 623.804688 1122.089844 623.996094 C 1118.273438 624.1875 1114.4375 624.351562 1110.589844 624.496094 C 1106.738281 624.640625 1102.878906 624.757812 1099.003906 624.855469 C 1095.128906 624.949219 1091.25 625.023438 1087.363281 625.070312 C 1083.476562 625.117188 1079.585938 625.140625 1075.691406 625.140625 C 1071.800781 625.140625 1067.910156 625.117188 1064.023438 625.070312 C 1060.136719 625.023438 1056.257812 624.949219 1052.382812 624.855469 C 1048.507812 624.757812 1044.648438 624.640625 1040.796875 624.496094 C 1036.949219 624.351562 1033.113281 624.1875 1029.296875 623.996094 C 1025.480469 623.804688 1021.683594 623.59375 1017.90625 623.355469 C 1014.132812 623.117188 1010.382812 622.859375 1006.65625 622.574219 C 1002.933594 622.292969 999.238281 621.984375 995.574219 621.65625 C 991.910156 621.328125 988.277344 620.976562 984.683594 620.601562 C 981.085938 620.230469 977.53125 619.835938 974.011719 619.417969 C 970.492188 619 967.015625 618.5625 963.585938 618.101562 C 960.152344 617.640625 956.765625 617.160156 953.429688 616.660156 C 950.089844 616.15625 946.800781 615.636719 943.566406 615.09375 C 940.328125 614.550781 937.148438 613.988281 934.023438 613.410156 C 930.894531 612.828125 927.828125 612.226562 924.820312 611.609375 C 921.8125 610.988281 918.863281 610.351562 915.980469 609.695312 C 913.097656 609.042969 910.277344 608.367188 907.527344 607.679688 C 904.773438 606.988281 902.09375 606.28125 899.476562 605.558594 C 896.863281 604.835938 894.324219 604.097656 891.855469 603.34375 C 889.382812 602.589844 886.992188 601.820312 884.671875 601.035156 C 882.355469 600.253906 880.113281 599.453125 877.949219 598.644531 C 875.789062 597.832031 873.707031 597.007812 871.707031 596.171875 C 869.703125 595.332031 867.785156 594.484375 865.953125 593.625 C 864.117188 592.765625 862.367188 591.890625 860.703125 591.011719 C 859.039062 590.128906 857.464844 589.238281 855.972656 588.335938 C 854.484375 587.433594 853.082031 586.523438 851.773438 585.605469 C 850.460938 584.6875 849.242188 583.757812 848.109375 582.824219 C 846.980469 581.890625 845.941406 580.953125 844.996094 580.003906 C 844.050781 579.058594 843.199219 578.105469 842.441406 577.148438 C 841.679688 576.191406 841.015625 575.230469 840.445312 574.265625 C 839.875 573.300781 839.398438 572.332031 839.015625 571.363281 C 838.632812 570.390625 838.347656 569.417969 838.15625 568.445312 C 837.964844 567.46875 837.871094 566.492188 837.871094 565.519531 C 837.871094 564.542969 837.964844 563.566406 838.15625 562.59375 C 838.347656 561.617188 838.632812 560.644531 839.015625 559.671875 C 839.398438 558.703125 839.875 557.734375 840.445312 556.769531 C 841.015625 555.804688 841.679688 554.84375 842.441406 553.886719 C 843.199219 552.929688 844.050781 551.976562 844.996094 551.03125 C 845.941406 550.082031 846.980469 549.144531 848.109375 548.210938 C 849.242188 547.277344 850.460938 546.351562 851.773438 545.429688 C 853.082031 544.511719 854.484375 543.601562 855.972656 542.699219 C 857.464844 541.800781 859.039062 540.90625 860.703125 540.023438 C 862.367188 539.144531 864.117188 538.273438 865.953125 537.410156 C 867.785156 536.550781 869.703125 535.703125 871.707031 534.863281 C 873.707031 534.027344 875.789062 533.203125 877.949219 532.390625 C 880.113281 531.582031 882.355469 530.785156 884.671875 530 C 886.992188 529.214844 889.382812 528.445312 891.855469 527.691406 C 894.324219 526.9375 896.863281 526.199219 899.476562 525.476562 C 902.09375 524.753906 904.773438 524.046875 907.527344 523.355469 C 910.277344 522.667969 913.097656 521.996094 915.980469 521.339844 C 918.863281 520.683594 921.8125 520.046875 924.820312 519.429688 C 927.828125 518.808594 930.894531 518.207031 934.023438 517.628906 C 937.148438 517.046875 940.328125 516.484375 943.566406 515.941406 C 946.800781 515.398438 950.089844 514.878906 953.429688 514.375 C 956.765625 513.875 960.152344 513.394531 963.585938 512.933594 C 967.015625 512.472656 970.492188 512.035156 974.011719 511.617188 C 977.53125 511.199219 981.085938 510.804688 984.683594 510.433594 C 988.277344 510.058594 991.910156 509.707031 995.574219 509.378906 C 999.238281 509.050781 1002.933594 508.746094 1006.65625 508.460938 C 1010.382812 508.179688 1014.132812 507.917969 1017.90625 507.679688 C 1021.683594 507.445312 1025.480469 507.230469 1029.296875 507.039062 C 1033.113281 506.847656 1036.949219 506.683594 1040.796875 506.539062 C 1044.648438 506.394531 1048.507812 506.277344 1052.382812 506.179688 C 1056.257812 506.085938 1060.136719 506.011719 1064.023438 505.964844 C 1067.910156 505.917969 1071.800781 505.894531 1075.691406 505.894531 C 1079.585938 505.894531 1083.476562 505.917969 1087.363281 505.964844 C 1091.25 506.011719 1095.128906 506.085938 1099.003906 506.179688 C 1102.878906 506.277344 1106.738281 506.394531 1110.589844 506.539062 C 1114.4375 506.683594 1118.273438 506.847656 1122.089844 507.039062 C 1125.90625 507.230469 1129.703125 507.445312 1133.480469 507.679688 C 1137.253906 507.917969 1141.003906 508.179688 1144.730469 508.460938 C 1148.453125 508.746094 1152.148438 509.050781 1155.8125 509.378906 C 1159.476562 509.707031 1163.109375 510.058594 1166.703125 510.433594 C 1170.300781 510.804688 1173.855469 511.199219 1177.375 511.617188 C 1180.894531 512.035156 1184.371094 512.472656 1187.800781 512.933594 C 1191.234375 513.394531 1194.621094 513.875 1197.957031 514.375 C 1201.296875 514.878906 1204.585938 515.398438 1207.820312 515.941406 C 1211.058594 516.484375 1214.238281 517.046875 1217.363281 517.628906 C 1220.492188 518.207031 1223.558594 518.808594 1226.566406 519.429688 C 1229.574219 520.046875 1232.523438 520.683594 1235.40625 521.339844 C 1238.289062 521.996094 1241.105469 522.667969 1243.859375 523.355469 C 1246.613281 524.046875 1249.292969 524.753906 1251.910156 525.476562 C 1254.523438 526.199219 1257.0625 526.9375 1259.53125 527.691406 C 1262.003906 528.445312 1264.394531 529.214844 1266.714844 530 C 1269.03125 530.785156 1271.273438 531.582031 1273.4375 532.390625 C 1275.597656 533.203125 1277.679688 534.027344 1279.679688 534.863281 C 1281.683594 535.703125 1283.601562 536.550781 1285.433594 537.410156 C 1287.269531 538.273438 1289.019531 539.144531 1290.683594 540.023438 C 1292.347656 540.90625 1293.921875 541.800781 1295.414062 542.699219 C 1296.902344 543.601562 1298.304688 544.511719 1299.613281 545.429688 C 1300.925781 546.351562 1302.144531 547.277344 1303.277344 548.210938 C 1304.40625 549.144531 1305.441406 550.082031 1306.390625 551.03125 C 1307.335938 551.976562 1308.1875 552.929688 1308.945312 553.886719 C 1309.707031 554.84375 1310.371094 555.804688 1310.941406 556.769531 C 1311.511719 557.734375 1311.988281 558.703125 1312.371094 559.671875 C 1312.753906 560.644531 1313.039062 561.617188 1313.230469 562.59375 C 1313.421875 563.566406 1313.515625 564.542969 1313.515625 565.519531 Z M 1313.515625 565.519531 " fill-opacity="1" fill-rule="nonzero"/><path fill="#af7146" d="M 1130.636719 281.84375 C 1117.515625 263.359375 1142.015625 256.867188 1127.257812 237.089844 C 1109.703125 221.832031 1119.792969 200.109375 1106.292969 183.375 C 1094.503906 168.792969 1070.207031 167.398438 1054.839844 176.554688 C 1029.734375 170.84375 1020.367188 191.703125 1017.960938 212.707031 C 1014.96875 222.222656 1007.167969 229.335938 1005.054688 239.253906 C 1002.277344 247.785156 1008.613281 255.890625 1007.144531 264.238281 C 1002.992188 273.375 1000.253906 283.632812 1004.964844 293.246094 C 1013.894531 327.265625 1157.066406 327.1875 1130.636719 281.84375 Z M 1130.636719 281.84375 " fill-opacity="1" fill-rule="nonzero"/><path fill="#fdae9c" d="M 1099 292.074219 C 1095.976562 290.238281 1092.351562 288.832031 1089.035156 287.800781 C 1083.128906 285.964844 1079.046875 280.578125 1078.808594 274.398438 L 1078.152344 257.289062 C 1078.152344 257.289062 1066.230469 256.699219 1060.21875 256.160156 C 1058.613281 256.488281 1054.128906 255.058594 1053.84375 256.886719 C 1052.535156 286.175781 1056.339844 280.449219 1031.40625 293.964844 C 1042.042969 330.390625 1087.796875 341.351562 1099.746094 297.375 C 1100.246094 297.4375 1099.457031 292.429688 1099 292.074219 Z M 1099 292.074219 " fill-opacity="1" fill-rule="nonzero"/><path fill="#fdae9c" d="M 1114.308594 352.304688 C 1125.949219 350.109375 1138.832031 339.371094 1149.90625 340.945312 C 1155.320312 361.195312 1160.296875 382.335938 1164.238281 402.902344 C 1187.390625 423.246094 1198.652344 453.226562 1217.3125 477.289062 C 1217.613281 477.296875 1217.863281 477.714844 1217.695312 477.992188 C 1217.894531 478.242188 1217.6875 478.636719 1217.398438 478.542969 C 1214.558594 481.167969 1206.105469 496.734375 1203.542969 495.46875 C 1178.738281 471.113281 1149.304688 449.207031 1133.394531 417.582031 C 1124.054688 398.675781 1119.148438 374.960938 1114.339844 353.78125 C 1113.699219 353.539062 1113.519531 352.589844 1114.308594 352.304688 Z M 1114.308594 352.304688 " fill-opacity="1" fill-rule="nonzero"/><path fill="#fdae9c" d="M 1116.648438 356.425781 L 1149.90625 340.945312 C 1149.90625 340.945312 1143.566406 301.023438 1102.039062 290.992188 L 1067.246094 284.578125 L 1032.449219 290.992188 C 990.925781 301.023438 984.585938 340.945312 984.585938 340.945312 L 1017.839844 356.425781 C 1016.40625 378.792969 1020.84375 414.730469 1020.84375 414.730469 L 1020.453125 415.4375 C 1002.488281 450.15625 1007.671875 459.6875 1002.351562 485.445312 L 1002.046875 486.925781 L 1067.246094 537.597656 L 1129.257812 482.703125 L 1128.558594 448.433594 C 1124.308594 436.84375 1119.296875 425.550781 1113.554688 414.625 C 1113.554688 414.625 1118.085938 378.792969 1116.648438 356.425781 Z M 1116.648438 356.425781 " fill-opacity="1" fill-rule="nonzero"/><path fill="#c97061" d="M 1030.351562 299.25 C 1032.984375 299.460938 1035.601562 299.777344 1038.214844 300.136719 C 1040.828125 300.5 1043.429688 300.949219 1046.03125 301.429688 C 1048.617188 301.980469 1051.210938 302.511719 1053.75 303.382812 C 1054.382812 303.605469 1055.011719 303.851562 1055.632812 304.1875 C 1055.785156 304.273438 1055.941406 304.351562 1056.09375 304.472656 C 1056.246094 304.570312 1056.402344 304.699219 1056.546875 304.875 C 1056.792969 305.179688 1056.9375 305.433594 1057.125 305.722656 C 1057.816406 306.867188 1058.488281 308.011719 1058.957031 309.289062 C 1059 309.402344 1058.941406 309.527344 1058.828125 309.566406 C 1058.726562 309.605469 1058.609375 309.558594 1058.5625 309.460938 L 1058.554688 309.445312 C 1057.976562 308.308594 1057.253906 307.203125 1056.484375 306.15625 C 1056.300781 305.90625 1056.09375 305.597656 1055.914062 305.402344 C 1055.84375 305.324219 1055.746094 305.246094 1055.617188 305.171875 C 1055.507812 305.089844 1055.363281 305.027344 1055.226562 304.960938 C 1054.675781 304.695312 1054.0625 304.484375 1053.445312 304.300781 C 1050.964844 303.566406 1048.386719 303.03125 1045.8125 302.546875 C 1043.242188 302.019531 1040.648438 301.585938 1038.058594 301.121094 L 1030.289062 299.730469 C 1030.15625 299.707031 1030.070312 299.582031 1030.09375 299.449219 C 1030.113281 299.328125 1030.226562 299.242188 1030.351562 299.25 Z M 1072.90625 309.582031 C 1073.027344 309.640625 1073.171875 309.59375 1073.230469 309.472656 L 1073.242188 309.457031 C 1073.816406 308.320312 1074.535156 307.210938 1075.300781 306.167969 C 1075.488281 305.917969 1075.691406 305.605469 1075.871094 305.414062 C 1075.9375 305.339844 1076.035156 305.257812 1076.164062 305.183594 C 1076.273438 305.105469 1076.417969 305.039062 1076.550781 304.972656 C 1077.101562 304.710938 1077.710938 304.496094 1078.332031 304.3125 C 1080.808594 303.578125 1083.386719 303.035156 1085.960938 302.546875 C 1088.53125 302.015625 1091.121094 301.578125 1093.710938 301.105469 L 1101.480469 299.707031 C 1101.589844 299.6875 1101.667969 299.585938 1101.65625 299.476562 C 1101.648438 299.355469 1101.542969 299.265625 1101.425781 299.277344 C 1098.792969 299.480469 1096.171875 299.796875 1093.558594 300.152344 C 1090.945312 300.507812 1088.339844 300.953125 1085.742188 301.429688 C 1083.152344 301.976562 1080.558594 302.5 1078.019531 303.371094 C 1077.386719 303.589844 1076.753906 303.839844 1076.132812 304.171875 C 1075.976562 304.257812 1075.820312 304.339844 1075.667969 304.457031 C 1075.515625 304.554688 1075.359375 304.683594 1075.210938 304.863281 C 1074.964844 305.171875 1074.820312 305.421875 1074.628906 305.714844 C 1073.9375 306.855469 1073.261719 307.996094 1072.789062 309.28125 C 1072.75 309.394531 1072.796875 309.523438 1072.90625 309.582031 Z M 1072.90625 309.582031 " fill-opacity="1" fill-rule="nonzero"/><path fill="#4e725b" d="M 1149.753906 340.144531 C 1149.753906 340.144531 1144.703125 333.726562 1143.621094 340.144531 C 1142.050781 349.449219 1153.710938 355.585938 1153.710938 355.585938 Z M 1149.753906 340.144531 " fill-opacity="1" fill-rule="nonzero"/><path fill="#fdae9c" d="M 1098.359375 224.035156 C 1097.640625 219.75 1096.527344 215.476562 1095.296875 211.289062 C 1094.097656 207.195312 1092.613281 203.125 1090.433594 199.398438 C 1088.554688 196.179688 1086.128906 193.1875 1083.160156 190.894531 C 1079.925781 188.398438 1076.226562 186.992188 1072.292969 186.238281 C 1065.328125 184.910156 1057.347656 184.671875 1051.222656 188.246094 C 1051.015625 188.367188 1050.828125 188.496094 1050.636719 188.625 C 1045.960938 190.667969 1041.882812 194.089844 1038.839844 198.054688 C 1034.195312 204.101562 1031.796875 211.574219 1031.195312 219.269531 C 1030.570312 227.207031 1031.417969 236.035156 1035.332031 243.324219 C 1038.972656 250.109375 1045.078125 255.503906 1052.09375 258.570312 C 1059.761719 261.921875 1068.273438 262.667969 1076.226562 261.027344 C 1083.59375 259.507812 1091.859375 255.945312 1095.464844 249.058594 C 1097.332031 245.488281 1098.214844 241.289062 1098.683594 237.261719 C 1099.191406 232.890625 1099.09375 228.433594 1098.359375 224.035156 Z M 1098.359375 224.035156 " fill-opacity="1" fill-rule="nonzero"/><path fill="#fdae9c" d="M 1173.148438 561.265625 C 1133.351562 538.832031 1081.449219 522.238281 1037.964844 523.109375 C 1035.585938 536.015625 1034.238281 549.734375 1034.363281 562.738281 C 1048.523438 565.140625 1065.765625 563.601562 1080.933594 565.035156 C 1100.644531 565.683594 1120.160156 569.207031 1139.90625 568.683594 C 1151.007812 566.976562 1160.679688 578.390625 1171.652344 573.953125 C 1176.796875 572.015625 1178.714844 563.84375 1173.148438 561.265625 Z M 1173.148438 561.265625 " fill-opacity="1" fill-rule="nonzero"/><path fill="#4e725b" d="M 1044.179688 540.402344 C 1043.46875 535.53125 1042.035156 530.839844 1040.199219 526.269531 C 1043.621094 527.144531 1034.3125 516.625 1033.757812 515.816406 C 1024.132812 504.753906 1016.992188 464.078125 1003.667969 460.285156 C 978.191406 469.195312 900.503906 502.992188 903.808594 537.777344 C 904.835938 546.578125 907.316406 556.84375 915.507812 561.609375 C 932.523438 572.851562 963.230469 576.445312 986.207031 571.675781 C 1001.472656 569.859375 1024.921875 566.933594 1040.402344 565.035156 C 1044.914062 558.3125 1045.140625 548.460938 1044.179688 540.402344 Z M 1044.179688 540.402344 " fill-opacity="1" fill-rule="nonzero"/><path fill="#4e725b" d="M 1006.339844 448.011719 C 1006.339844 448.011719 1000.648438 465.71875 1002.488281 483.871094 C 1002.488281 483.871094 1009.222656 531.484375 1069.167969 531.484375 C 1070 531.484375 1070.824219 531.472656 1071.636719 531.453125 C 1111.347656 530.515625 1139.917969 494.742188 1131.148438 457.957031 L 1129.257812 450.023438 C 1129.257812 450.023438 1064.949219 437.816406 1006.339844 448.011719 Z M 1006.339844 448.011719 " fill-opacity="1" fill-rule="nonzero"/><path fill="#27392e" d="M 1012.648438 432.378906 C 1012.648438 432.378906 1079.339844 452.214844 1122.230469 432.679688 L 1129.257812 450.347656 C 1129.257812 450.347656 1082.96875 479.410156 1006.339844 448.230469 Z M 1012.648438 432.378906 " fill-opacity="1" fill-rule="nonzero"/><path fill="#4e725b" d="M 1219.25 536.6875 C 1217.246094 512.625 1208.535156 505.105469 1190.785156 496.9375 C 1175.90625 490.867188 1147.304688 463.183594 1131.148438 458.699219 C 1118.605469 455.214844 1067.621094 495.585938 1068.238281 497.46875 C 1073.167969 512.542969 1078.382812 529.476562 1079.984375 543.878906 C 1114.925781 555.199219 1144.339844 568.128906 1180.320312 574.984375 C 1196.296875 578.03125 1213.460938 566.367188 1219.25 536.6875 Z M 1219.25 536.6875 " fill-opacity="1" fill-rule="nonzero"/><path fill="#27392e" d="M 953.703125 492.117188 C 953.703125 492.382812 953.675781 492.644531 953.625 492.90625 C 953.570312 493.167969 953.496094 493.421875 953.394531 493.667969 C 953.292969 493.914062 953.167969 494.148438 953.019531 494.367188 C 952.871094 494.589844 952.703125 494.792969 952.515625 494.984375 C 952.324219 495.171875 952.121094 495.339844 951.898438 495.488281 C 951.675781 495.636719 951.445312 495.761719 951.199219 495.863281 C 950.953125 495.964844 950.699219 496.042969 950.4375 496.09375 C 950.175781 496.144531 949.910156 496.171875 949.644531 496.171875 C 949.378906 496.171875 949.113281 496.144531 948.855469 496.09375 C 948.59375 496.042969 948.339844 495.964844 948.09375 495.863281 C 947.847656 495.761719 947.613281 495.636719 947.390625 495.488281 C 947.171875 495.339844 946.964844 495.171875 946.777344 494.984375 C 946.589844 494.792969 946.421875 494.589844 946.273438 494.367188 C 946.125 494.148438 946 493.914062 945.898438 493.667969 C 945.796875 493.421875 945.71875 493.167969 945.667969 492.90625 C 945.613281 492.644531 945.589844 492.382812 945.589844 492.117188 C 945.589844 491.847656 945.613281 491.585938 945.667969 491.324219 C 945.71875 491.0625 945.796875 490.808594 945.898438 490.5625 C 946 490.316406 946.125 490.082031 946.273438 489.863281 C 946.421875 489.640625 946.589844 489.4375 946.777344 489.246094 C 946.964844 489.058594 947.171875 488.890625 947.390625 488.742188 C 947.613281 488.59375 947.847656 488.46875 948.09375 488.367188 C 948.339844 488.265625 948.59375 488.191406 948.855469 488.136719 C 949.113281 488.085938 949.378906 488.058594 949.644531 488.058594 C 949.910156 488.058594 950.175781 488.085938 950.4375 488.136719 C 950.699219 488.1875 950.953125 488.265625 951.199219 488.367188 C 951.445312 488.46875 951.675781 488.59375 951.898438 488.742188 C 952.121094 488.890625 952.324219 489.058594 952.515625 489.246094 C 952.703125 489.4375 952.871094 489.640625 953.019531 489.863281 C 953.167969 490.082031 953.292969 490.316406 953.394531 490.5625 C 953.496094 490.808594 953.570312 491.0625 953.625 491.324219 C 953.675781 491.585938 953.703125 491.847656 953.703125 492.117188 Z M 953.703125 492.117188 " fill-opacity="1" fill-rule="nonzero"/><path fill="#27392e" d="M 935.144531 473.707031 C 935.144531 473.972656 935.121094 474.238281 935.070312 474.5 C 935.015625 474.757812 934.941406 475.011719 934.835938 475.257812 C 934.734375 475.503906 934.609375 475.738281 934.460938 475.960938 C 934.316406 476.183594 934.148438 476.386719 933.957031 476.574219 C 933.769531 476.761719 933.566406 476.929688 933.34375 477.078125 C 933.121094 477.226562 932.886719 477.351562 932.640625 477.453125 C 932.394531 477.554688 932.140625 477.632812 931.882812 477.683594 C 931.621094 477.738281 931.355469 477.761719 931.089844 477.761719 C 930.824219 477.761719 930.558594 477.738281 930.296875 477.683594 C 930.035156 477.632812 929.785156 477.554688 929.539062 477.453125 C 929.292969 477.351562 929.058594 477.226562 928.835938 477.078125 C 928.613281 476.929688 928.410156 476.761719 928.222656 476.574219 C 928.03125 476.386719 927.863281 476.183594 927.71875 475.960938 C 927.570312 475.738281 927.445312 475.503906 927.34375 475.257812 C 927.238281 475.011719 927.164062 474.757812 927.109375 474.5 C 927.058594 474.238281 927.03125 473.972656 927.03125 473.707031 C 927.03125 473.441406 927.058594 473.175781 927.109375 472.914062 C 927.164062 472.65625 927.238281 472.402344 927.34375 472.15625 C 927.445312 471.910156 927.570312 471.675781 927.71875 471.453125 C 927.863281 471.234375 928.03125 471.027344 928.222656 470.839844 C 928.410156 470.652344 928.613281 470.484375 928.835938 470.335938 C 929.058594 470.1875 929.292969 470.0625 929.539062 469.960938 C 929.785156 469.859375 930.035156 469.78125 930.296875 469.730469 C 930.558594 469.675781 930.824219 469.652344 931.089844 469.652344 C 931.355469 469.652344 931.621094 469.675781 931.882812 469.730469 C 932.140625 469.78125 932.394531 469.859375 932.640625 469.960938 C 932.886719 470.0625 933.121094 470.1875 933.34375 470.335938 C 933.566406 470.484375 933.769531 470.652344 933.957031 470.839844 C 934.148438 471.027344 934.316406 471.234375 934.460938 471.453125 C 934.609375 471.675781 934.734375 471.910156 934.835938 472.15625 C 934.941406 472.402344 935.015625 472.65625 935.070312 472.917969 C 935.121094 473.175781 935.144531 473.441406 935.144531 473.707031 Z M 935.144531 473.707031 " fill-opacity="1" fill-rule="nonzero"/><path fill="#fdae9c" d="M 1020.796875 352.304688 C 1019.25 351.765625 1017.632812 351.433594 1016.070312 350.933594 C 1014.570312 350.453125 1013.082031 349.925781 1011.601562 349.375 C 1008.566406 348.25 1005.574219 347.007812 1002.5625 345.8125 C 999.632812 344.65625 996.683594 343.53125 993.671875 342.628906 C 990.816406 341.769531 987.652344 340.8125 984.699219 340.941406 C 984.660156 340.933594 984.625 340.941406 984.585938 340.945312 C 984.523438 340.949219 984.398438 340.949219 984.398438 340.949219 L 984.25 341.511719 C 984.25 341.511719 982.691406 348.726562 982.273438 353.070312 C 981.878906 357.179688 981.09375 361.246094 980.535156 365.335938 C 979.4375 373.375 978.304688 381.40625 977.226562 389.449219 C 976.921875 391.726562 976.605469 394 976.308594 396.277344 C 976.027344 398.414062 975.5625 400.71875 975.804688 402.902344 C 973.679688 404.800781 971.6875 406.84375 969.816406 408.992188 C 966.050781 413.328125 962.765625 418.070312 959.8125 423.003906 C 953.046875 434.304688 947.867188 446.515625 941.375 457.972656 C 939.496094 461.289062 937.472656 464.511719 935.511719 467.773438 C 934.53125 469.402344 933.574219 471.042969 932.601562 472.675781 C 931.695312 474.191406 930.722656 475.679688 929.988281 477.289062 C 929.703125 477.296875 929.5 477.683594 929.65625 477.960938 C 929.660156 477.972656 929.667969 477.980469 929.675781 477.992188 C 929.664062 478.019531 929.648438 478.042969 929.640625 478.070312 C 929.539062 478.332031 929.792969 478.625 930.03125 478.542969 C 930.449219 479.136719 930.949219 479.675781 931.410156 480.230469 C 932.070312 481.015625 932.726562 481.804688 933.390625 482.589844 C 934.71875 484.152344 936.039062 485.722656 937.34375 487.304688 C 938.636719 488.871094 939.921875 490.449219 941.191406 492.039062 C 941.832031 492.835938 942.460938 493.640625 943.101562 494.4375 C 943.6875 495.164062 944.054688 495.824219 945.042969 495.652344 C 945.070312 495.648438 945.09375 495.636719 945.117188 495.628906 C 945.257812 495.628906 945.402344 495.585938 945.539062 495.46875 C 948.394531 492.910156 950.972656 490.015625 953.617188 487.246094 C 956.214844 484.527344 958.808594 481.804688 961.410156 479.085938 C 966.488281 473.78125 971.640625 468.542969 976.578125 463.105469 C 985.28125 453.519531 993.992188 443.941406 1000.695312 432.769531 C 1002.566406 429.65625 1004.261719 426.429688 1005.769531 423.113281 C 1006.539062 421.425781 1007.265625 419.71875 1007.933594 417.984375 C 1007.984375 417.851562 1008.03125 417.71875 1008.078125 417.582031 C 1008.167969 417.75 1008.457031 417.796875 1008.539062 417.609375 C 1009.382812 415.699219 1010.054688 413.84375 1010.582031 411.808594 C 1011.125 409.707031 1011.589844 407.578125 1012.070312 405.460938 C 1013.015625 401.292969 1013.914062 397.113281 1014.769531 392.921875 C 1016.488281 384.460938 1018.007812 375.957031 1019.300781 367.398438 C 1019.671875 364.945312 1020.019531 362.484375 1020.351562 360.019531 C 1020.515625 358.824219 1020.664062 357.628906 1020.792969 356.425781 C 1020.886719 355.550781 1021.011719 354.664062 1020.910156 353.78125 C 1021.523438 353.539062 1021.613281 352.589844 1020.796875 352.304688 Z M 1020.796875 352.304688 " fill-opacity="1" fill-rule="nonzero"/><path fill="#27392e" d="M 940.152344 472.75 C 940.152344 473.015625 940.125 473.28125 940.074219 473.542969 C 940.023438 473.800781 939.945312 474.054688 939.84375 474.300781 C 939.742188 474.546875 939.617188 474.78125 939.46875 475.003906 C 939.320312 475.226562 939.152344 475.429688 938.964844 475.617188 C 938.773438 475.804688 938.570312 475.972656 938.347656 476.121094 C 938.128906 476.269531 937.894531 476.394531 937.648438 476.496094 C 937.402344 476.597656 937.148438 476.675781 936.886719 476.726562 C 936.625 476.78125 936.363281 476.804688 936.09375 476.804688 C 935.828125 476.804688 935.566406 476.78125 935.304688 476.726562 C 935.042969 476.675781 934.789062 476.597656 934.542969 476.496094 C 934.296875 476.394531 934.0625 476.269531 933.839844 476.121094 C 933.621094 475.972656 933.414062 475.804688 933.226562 475.617188 C 933.039062 475.429688 932.871094 475.226562 932.722656 475.003906 C 932.574219 474.78125 932.449219 474.546875 932.347656 474.300781 C 932.246094 474.054688 932.167969 473.800781 932.117188 473.542969 C 932.066406 473.28125 932.039062 473.015625 932.039062 472.75 C 932.039062 472.484375 932.066406 472.21875 932.117188 471.957031 C 932.167969 471.699219 932.246094 471.445312 932.347656 471.199219 C 932.449219 470.953125 932.574219 470.71875 932.722656 470.496094 C 932.871094 470.273438 933.039062 470.070312 933.226562 469.882812 C 933.414062 469.695312 933.621094 469.527344 933.839844 469.378906 C 934.0625 469.230469 934.296875 469.105469 934.542969 469.003906 C 934.789062 468.902344 935.042969 468.824219 935.304688 468.773438 C 935.566406 468.71875 935.828125 468.695312 936.09375 468.695312 C 936.363281 468.695312 936.625 468.71875 936.886719 468.773438 C 937.148438 468.824219 937.402344 468.902344 937.648438 469.003906 C 937.894531 469.105469 938.128906 469.230469 938.347656 469.378906 C 938.570312 469.527344 938.773438 469.695312 938.964844 469.882812 C 939.152344 470.070312 939.320312 470.273438 939.46875 470.496094 C 939.617188 470.71875 939.742188 470.953125 939.84375 471.199219 C 939.945312 471.445312 940.023438 471.699219 940.074219 471.957031 C 940.125 472.21875 940.152344 472.484375 940.152344 472.75 Z M 940.152344 472.75 " fill-opacity="1" fill-rule="nonzero"/><path fill="#27392e" d="M 946.765625 476.804688 C 946.765625 477.070312 946.738281 477.335938 946.6875 477.597656 C 946.632812 477.859375 946.558594 478.113281 946.457031 478.359375 C 946.355469 478.605469 946.230469 478.835938 946.082031 479.058594 C 945.933594 479.28125 945.765625 479.484375 945.578125 479.671875 C 945.386719 479.863281 945.183594 480.03125 944.960938 480.179688 C 944.738281 480.324219 944.507812 480.449219 944.261719 480.554688 C 944.015625 480.65625 943.761719 480.730469 943.5 480.785156 C 943.238281 480.835938 942.972656 480.863281 942.707031 480.863281 C 942.441406 480.863281 942.175781 480.835938 941.917969 480.785156 C 941.65625 480.730469 941.402344 480.65625 941.15625 480.554688 C 940.910156 480.449219 940.675781 480.324219 940.453125 480.179688 C 940.234375 480.03125 940.027344 479.863281 939.839844 479.671875 C 939.652344 479.484375 939.484375 479.28125 939.335938 479.058594 C 939.1875 478.835938 939.0625 478.605469 938.960938 478.359375 C 938.859375 478.113281 938.78125 477.859375 938.730469 477.597656 C 938.675781 477.335938 938.652344 477.070312 938.652344 476.804688 C 938.652344 476.539062 938.675781 476.277344 938.730469 476.015625 C 938.78125 475.753906 938.859375 475.5 938.960938 475.253906 C 939.0625 475.007812 939.1875 474.773438 939.335938 474.550781 C 939.484375 474.332031 939.652344 474.125 939.839844 473.9375 C 940.027344 473.75 940.234375 473.582031 940.453125 473.433594 C 940.675781 473.285156 940.910156 473.160156 941.15625 473.058594 C 941.402344 472.957031 941.65625 472.878906 941.917969 472.828125 C 942.175781 472.777344 942.441406 472.75 942.707031 472.75 C 942.972656 472.75 943.238281 472.777344 943.5 472.828125 C 943.761719 472.878906 944.015625 472.957031 944.261719 473.058594 C 944.507812 473.160156 944.738281 473.285156 944.960938 473.433594 C 945.183594 473.582031 945.386719 473.75 945.578125 473.9375 C 945.765625 474.125 945.933594 474.332031 946.082031 474.550781 C 946.230469 474.773438 946.355469 475.007812 946.457031 475.253906 C 946.558594 475.5 946.632812 475.753906 946.6875 476.015625 C 946.738281 476.277344 946.765625 476.539062 946.765625 476.804688 Z M 946.765625 476.804688 " fill-opacity="1" fill-rule="nonzero"/><path fill="#27392e" d="M 951.570312 481.820312 C 951.570312 482.085938 951.542969 482.347656 951.492188 482.609375 C 951.4375 482.871094 951.363281 483.125 951.261719 483.371094 C 951.15625 483.617188 951.03125 483.851562 950.886719 484.070312 C 950.738281 484.292969 950.570312 484.5 950.378906 484.6875 C 950.191406 484.875 949.988281 485.042969 949.765625 485.191406 C 949.542969 485.339844 949.308594 485.464844 949.0625 485.566406 C 948.816406 485.667969 948.566406 485.746094 948.304688 485.796875 C 948.042969 485.847656 947.777344 485.875 947.511719 485.875 C 947.246094 485.875 946.980469 485.847656 946.71875 485.796875 C 946.460938 485.746094 946.207031 485.667969 945.960938 485.566406 C 945.714844 485.464844 945.480469 485.339844 945.257812 485.191406 C 945.035156 485.042969 944.832031 484.875 944.644531 484.6875 C 944.457031 484.5 944.285156 484.292969 944.140625 484.070312 C 943.992188 483.851562 943.867188 483.617188 943.765625 483.371094 C 943.664062 483.125 943.585938 482.871094 943.535156 482.609375 C 943.480469 482.347656 943.457031 482.085938 943.457031 481.820312 C 943.457031 481.550781 943.480469 481.289062 943.535156 481.027344 C 943.585938 480.765625 943.664062 480.511719 943.765625 480.265625 C 943.867188 480.019531 943.992188 479.785156 944.140625 479.566406 C 944.285156 479.34375 944.457031 479.140625 944.644531 478.949219 C 944.832031 478.761719 945.035156 478.59375 945.257812 478.445312 C 945.480469 478.296875 945.714844 478.171875 945.960938 478.070312 C 946.207031 477.96875 946.460938 477.894531 946.71875 477.839844 C 946.980469 477.789062 947.246094 477.761719 947.511719 477.761719 C 947.777344 477.761719 948.042969 477.789062 948.304688 477.839844 C 948.566406 477.894531 948.816406 477.96875 949.0625 478.070312 C 949.308594 478.171875 949.542969 478.296875 949.765625 478.445312 C 949.988281 478.59375 950.191406 478.761719 950.378906 478.949219 C 950.570312 479.140625 950.738281 479.34375 950.886719 479.566406 C 951.03125 479.785156 951.15625 480.019531 951.261719 480.265625 C 951.363281 480.511719 951.4375 480.765625 951.492188 481.027344 C 951.542969 481.289062 951.570312 481.550781 951.570312 481.820312 Z M 951.570312 481.820312 " fill-opacity="1" fill-rule="nonzero"/><path fill="#27392e" d="M 954.902344 488.058594 C 954.902344 488.324219 954.875 488.589844 954.824219 488.851562 C 954.773438 489.113281 954.695312 489.367188 954.59375 489.613281 C 954.492188 489.859375 954.367188 490.089844 954.21875 490.3125 C 954.070312 490.535156 953.902344 490.738281 953.714844 490.925781 C 953.527344 491.117188 953.320312 491.285156 953.097656 491.433594 C 952.878906 491.578125 952.644531 491.703125 952.398438 491.808594 C 952.152344 491.910156 951.898438 491.984375 951.636719 492.039062 C 951.375 492.089844 951.113281 492.117188 950.84375 492.117188 C 950.578125 492.117188 950.316406 492.089844 950.054688 492.039062 C 949.792969 491.984375 949.539062 491.910156 949.292969 491.804688 C 949.046875 491.703125 948.8125 491.578125 948.589844 491.433594 C 948.371094 491.285156 948.164062 491.117188 947.976562 490.925781 C 947.789062 490.738281 947.621094 490.535156 947.472656 490.3125 C 947.324219 490.089844 947.199219 489.859375 947.097656 489.613281 C 946.996094 489.367188 946.917969 489.113281 946.867188 488.851562 C 946.816406 488.589844 946.789062 488.324219 946.789062 488.058594 C 946.789062 487.792969 946.816406 487.53125 946.867188 487.269531 C 946.917969 487.007812 946.996094 486.753906 947.097656 486.507812 C 947.199219 486.261719 947.324219 486.027344 947.472656 485.804688 C 947.621094 485.585938 947.789062 485.378906 947.976562 485.191406 C 948.164062 485.003906 948.371094 484.835938 948.589844 484.6875 C 948.8125 484.539062 949.046875 484.414062 949.292969 484.3125 C 949.539062 484.210938 949.792969 484.132812 950.054688 484.082031 C 950.316406 484.03125 950.578125 484.003906 950.84375 484.003906 C 951.113281 484.003906 951.375 484.03125 951.636719 484.082031 C 951.898438 484.132812 952.152344 484.210938 952.398438 484.3125 C 952.644531 484.414062 952.878906 484.539062 953.097656 484.6875 C 953.320312 484.835938 953.527344 485.003906 953.714844 485.191406 C 953.902344 485.378906 954.070312 485.585938 954.21875 485.804688 C 954.367188 486.027344 954.492188 486.261719 954.59375 486.507812 C 954.695312 486.753906 954.773438 487.007812 954.824219 487.269531 C 954.875 487.53125 954.902344 487.792969 954.902344 488.058594 Z M 954.902344 488.058594 " fill-opacity="1" fill-rule="nonzero"/><path fill="#fdae9c" d="M 946.65625 492.175781 C 943.027344 487.148438 939.238281 478.894531 933.710938 476.753906 C 923.65625 476.082031 911.699219 473.023438 904.125 481.527344 C 898.738281 481.554688 890.953125 487.332031 897.453125 491.96875 C 895.929688 493.183594 895.253906 494.9375 894.773438 496.75 C 893.984375 494.722656 892.261719 492.511719 889.648438 494.03125 C 887.914062 495.035156 888.214844 501.175781 887.742188 503.761719 C 887.148438 507.011719 886.933594 506.75 886.628906 511.324219 C 886.257812 516.894531 890.917969 521.78125 896.167969 516.765625 C 898.988281 520.300781 905.011719 519.835938 907.035156 515.761719 C 910.011719 517.71875 914.300781 517.441406 916.597656 514.625 C 925.726562 518.339844 941.15625 501.605469 946.246094 494.820312 C 946.609375 494.589844 946.945312 492.671875 946.65625 492.175781 Z M 946.65625 492.175781 " fill-opacity="1" fill-rule="nonzero"/><path fill="#fdae9c" d="M 1202.101562 492.175781 C 1203.507812 489.277344 1205.101562 486.484375 1206.898438 483.820312 C 1207.765625 482.53125 1208.679688 481.265625 1209.628906 480.035156 C 1210.097656 479.429688 1210.570312 478.824219 1211.066406 478.242188 C 1211.570312 477.648438 1212.097656 476.902344 1212.8125 476.554688 C 1213.054688 476.4375 1213.390625 476.539062 1213.542969 476.753906 C 1214.660156 476.453125 1215.800781 476.390625 1216.992188 476.328125 C 1218.511719 476.253906 1220.035156 476.171875 1221.558594 476.109375 C 1224.523438 475.984375 1227.492188 475.859375 1230.457031 475.757812 C 1233.160156 475.664062 1235.484375 475.988281 1237.859375 477.484375 C 1239.828125 478.726562 1241.816406 480.015625 1243.59375 481.527344 C 1243.84375 481.550781 1244.09375 481.601562 1244.339844 481.648438 C 1245.105469 481.785156 1245.855469 481.96875 1246.605469 482.1875 C 1247.921875 482.574219 1249.28125 483.03125 1250.472656 483.753906 C 1251.617188 484.449219 1252.589844 485.425781 1253.042969 486.699219 C 1253.476562 487.929688 1253.40625 489.367188 1252.757812 490.457031 C 1252.441406 490.996094 1251.90625 491.613281 1251.28125 491.96875 C 1251.746094 492.257812 1252.175781 492.753906 1252.433594 493.054688 C 1253.128906 493.859375 1253.644531 494.804688 1254.054688 495.773438 C 1254.195312 496.09375 1254.316406 496.417969 1254.429688 496.75 C 1255.019531 494.722656 1255.910156 492.679688 1258.199219 492.628906 C 1261.238281 492.558594 1263.300781 495.785156 1264.027344 498.375 C 1264.9375 501.625 1264.738281 505.140625 1264.71875 508.433594 C 1264.707031 510.242188 1264.996094 511.953125 1264.386719 513.683594 C 1263.890625 515.082031 1263.097656 516.339844 1261.902344 517.226562 C 1260.625 518.179688 1258.941406 518.550781 1257.328125 518.152344 C 1256.449219 517.933594 1255.515625 517.476562 1254.988281 516.765625 C 1253.976562 518.042969 1252.511719 518.949219 1250.839844 519.152344 C 1249.15625 519.359375 1247.386719 518.824219 1245.972656 517.816406 C 1245.238281 517.292969 1244.59375 516.664062 1244.101562 515.902344 C 1244.070312 515.855469 1244.050781 515.808594 1244.023438 515.761719 C 1243.742188 515.949219 1243.449219 516.121094 1243.152344 516.265625 C 1241.664062 516.980469 1239.933594 517.238281 1238.261719 516.875 C 1236.78125 516.550781 1235.410156 515.726562 1234.347656 514.625 C 1232.296875 515.734375 1229.382812 515.28125 1227.277344 514.386719 C 1223.996094 512.996094 1221.09375 510.527344 1218.304688 508.324219 C 1215.292969 505.945312 1212.367188 503.457031 1209.535156 500.859375 C 1208.144531 499.589844 1206.78125 498.289062 1205.4375 496.96875 C 1204.453125 496 1202.945312 494.757812 1202.507812 493.367188 C 1202.125 493.136719 1201.859375 492.671875 1202.101562 492.175781 Z M 1202.101562 492.175781 " fill-opacity="1" fill-rule="nonzero"/><path fill="#fdae9c" d="M 1088.042969 508.417969 L 1079.984375 543.878906 C 1079.984375 543.878906 1060.441406 536.09375 1040.308594 528.167969 C 1020.71875 520.460938 1001.484375 518.625 998.222656 517.707031 C 994.34375 516.46875 986.789062 514.386719 982.882812 513.550781 C 979.640625 512.859375 977.414062 509.84375 974.269531 508.953125 C 971.121094 508.058594 968.050781 506.953125 965.105469 505.425781 C 964.390625 504.484375 963.949219 502.679688 965.121094 501.207031 C 965.980469 500.351562 967.535156 498.894531 970.453125 497.9375 C 973.46875 497.351562 976.992188 497.9375 976.992188 497.9375 C 976.992188 497.9375 977.957031 496.464844 980.652344 494.746094 C 982.011719 493.878906 986.589844 494.75 986.589844 494.75 C 986.589844 494.75 987.351562 490.570312 995.601562 491.351562 C 1001.582031 491.914062 999.195312 490.183594 1005.4375 492.117188 C 1012.160156 494.195312 1026.789062 491.382812 1026.789062 491.382812 C 1026.789062 491.382812 1035.664062 487.382812 1038.644531 486.851562 C 1042.074219 486.234375 1050.246094 485.933594 1052.941406 489.027344 C 1056.445312 493.050781 1056.480469 499.78125 1055.550781 504.410156 C 1065.847656 505.75 1088.042969 508.417969 1088.042969 508.417969 Z M 1088.042969 508.417969 " fill-opacity="1" fill-rule="nonzero"/><path fill="#c97061" d="M 1045.136719 209.582031 C 1047 208.292969 1049.015625 207.214844 1051.140625 206.375 C 1052.46875 205.851562 1053.859375 205.417969 1055.308594 205.359375 C 1055.640625 205.34375 1056.042969 205.382812 1056.222656 205.675781 C 1056.480469 206.101562 1056.039062 206.566406 1055.644531 206.828125 C 1053.371094 208.328125 1050.996094 209.683594 1048.539062 210.878906 C 1047.386719 211.4375 1045.472656 212.546875 1044.101562 212.214844 C 1042.308594 211.78125 1044.53125 210 1045.136719 209.582031 Z M 1045.136719 209.582031 " fill-opacity="1" fill-rule="nonzero"/><path fill="#fdae9c" d="M 1038.910156 224.957031 C 1039.355469 225.628906 1039.746094 226.324219 1040.089844 227.042969 C 1040.429688 227.761719 1040.714844 228.492188 1040.945312 229.234375 C 1041.171875 229.972656 1041.339844 230.707031 1041.445312 231.441406 C 1041.550781 232.171875 1041.59375 232.886719 1041.570312 233.582031 C 1041.550781 234.277344 1041.464844 234.941406 1041.320312 235.570312 C 1041.171875 236.203125 1040.964844 236.792969 1040.699219 237.335938 C 1040.429688 237.882812 1040.109375 238.371094 1039.730469 238.808594 C 1039.355469 239.246094 1038.929688 239.621094 1038.457031 239.929688 C 1037.984375 240.242188 1037.472656 240.484375 1036.921875 240.660156 C 1036.371094 240.832031 1035.792969 240.9375 1035.1875 240.964844 C 1034.582031 240.996094 1033.960938 240.953125 1033.320312 240.839844 C 1032.683594 240.726562 1032.039062 240.542969 1031.390625 240.285156 C 1030.746094 240.03125 1030.105469 239.710938 1029.472656 239.324219 C 1028.84375 238.941406 1028.234375 238.496094 1027.644531 237.996094 C 1027.054688 237.492188 1026.496094 236.941406 1025.96875 236.34375 C 1025.441406 235.746094 1024.957031 235.109375 1024.515625 234.4375 C 1024.070312 233.765625 1023.679688 233.070312 1023.335938 232.351562 C 1022.996094 231.632812 1022.710938 230.902344 1022.480469 230.160156 C 1022.253906 229.421875 1022.085938 228.6875 1021.980469 227.953125 C 1021.875 227.222656 1021.832031 226.507812 1021.855469 225.8125 C 1021.875 225.117188 1021.960938 224.457031 1022.105469 223.824219 C 1022.253906 223.191406 1022.460938 222.601562 1022.726562 222.058594 C 1022.996094 221.511719 1023.316406 221.023438 1023.695312 220.585938 C 1024.070312 220.148438 1024.496094 219.777344 1024.96875 219.464844 C 1025.441406 219.152344 1025.953125 218.910156 1026.503906 218.734375 C 1027.054688 218.5625 1027.632812 218.460938 1028.238281 218.429688 C 1028.84375 218.398438 1029.464844 218.441406 1030.105469 218.554688 C 1030.742188 218.667969 1031.386719 218.855469 1032.035156 219.109375 C 1032.683594 219.363281 1033.320312 219.683594 1033.953125 220.070312 C 1034.582031 220.457031 1035.191406 220.898438 1035.78125 221.402344 C 1036.371094 221.902344 1036.929688 222.453125 1037.457031 223.050781 C 1037.984375 223.648438 1038.46875 224.285156 1038.910156 224.957031 Z M 1038.910156 224.957031 " fill-opacity="1" fill-rule="nonzero"/><path fill="#fdae9c" d="M 1104.539062 219.121094 C 1105.070312 219.375 1105.5625 219.699219 1106.019531 220.085938 C 1106.476562 220.472656 1106.882812 220.917969 1107.246094 221.421875 C 1107.609375 221.925781 1107.917969 222.476562 1108.171875 223.078125 C 1108.425781 223.675781 1108.625 224.3125 1108.761719 224.984375 C 1108.898438 225.660156 1108.976562 226.355469 1108.992188 227.074219 C 1109.007812 227.796875 1108.960938 228.527344 1108.855469 229.265625 C 1108.75 230.007812 1108.582031 230.742188 1108.355469 231.472656 C 1108.128906 232.203125 1107.847656 232.917969 1107.511719 233.613281 C 1107.175781 234.304688 1106.792969 234.96875 1106.359375 235.601562 C 1105.925781 236.230469 1105.453125 236.820312 1104.9375 237.363281 C 1104.421875 237.90625 1103.878906 238.394531 1103.304688 238.828125 C 1102.730469 239.265625 1102.136719 239.636719 1101.523438 239.945312 C 1100.910156 240.253906 1100.289062 240.496094 1099.660156 240.667969 C 1099.03125 240.839844 1098.40625 240.941406 1097.789062 240.96875 C 1097.167969 240.996094 1096.566406 240.953125 1095.976562 240.835938 C 1095.390625 240.71875 1094.832031 240.53125 1094.300781 240.273438 C 1093.769531 240.019531 1093.277344 239.695312 1092.820312 239.308594 C 1092.367188 238.921875 1091.957031 238.476562 1091.59375 237.972656 C 1091.230469 237.46875 1090.921875 236.917969 1090.667969 236.316406 C 1090.414062 235.71875 1090.214844 235.082031 1090.078125 234.410156 C 1089.941406 233.734375 1089.863281 233.039062 1089.847656 232.320312 C 1089.832031 231.597656 1089.878906 230.867188 1089.984375 230.128906 C 1090.09375 229.386719 1090.257812 228.652344 1090.484375 227.921875 C 1090.710938 227.191406 1090.992188 226.476562 1091.328125 225.78125 C 1091.664062 225.089844 1092.050781 224.425781 1092.480469 223.792969 C 1092.914062 223.164062 1093.390625 222.574219 1093.902344 222.03125 C 1094.417969 221.488281 1094.960938 221 1095.535156 220.566406 C 1096.109375 220.132812 1096.703125 219.757812 1097.316406 219.449219 C 1097.929688 219.140625 1098.550781 218.898438 1099.179688 218.726562 C 1099.808594 218.554688 1100.433594 218.453125 1101.054688 218.425781 C 1101.671875 218.398438 1102.277344 218.441406 1102.863281 218.558594 C 1103.449219 218.675781 1104.007812 218.863281 1104.539062 219.121094 Z M 1104.539062 219.121094 " fill-opacity="1" fill-rule="nonzero"/><path fill="#c97061" d="M 1053.683594 223.722656 C 1053.246094 225.238281 1049.898438 225.472656 1046.210938 224.25 C 1042.519531 223.027344 1039.882812 220.804688 1040.320312 219.292969 C 1040.757812 217.777344 1044.101562 217.539062 1047.792969 218.761719 C 1051.480469 219.988281 1054.117188 222.207031 1053.683594 223.722656 Z M 1082.78125 219.554688 C 1079.546875 220.726562 1077.371094 222.789062 1077.925781 224.164062 C 1078.484375 225.539062 1081.558594 225.703125 1084.796875 224.535156 C 1088.03125 223.363281 1090.207031 221.300781 1089.652344 219.925781 C 1089.09375 218.550781 1086.019531 218.382812 1082.78125 219.554688 Z M 1082.78125 219.554688 " fill-opacity="0.5" fill-rule="nonzero"/><path fill="#c97061" d="M 1084.03125 209.582031 C 1082.042969 208.292969 1079.921875 207.214844 1077.71875 206.375 C 1076.335938 205.851562 1074.90625 205.417969 1073.449219 205.359375 C 1073.113281 205.34375 1072.714844 205.382812 1072.566406 205.675781 C 1072.347656 206.101562 1072.832031 206.566406 1073.253906 206.828125 C 1075.675781 208.328125 1078.183594 209.683594 1080.757812 210.878906 C 1081.964844 211.4375 1083.984375 212.546875 1085.324219 212.214844 C 1087.074219 211.78125 1084.675781 210 1084.03125 209.582031 Z M 1084.03125 209.582031 " fill-opacity="1" fill-rule="nonzero"/><path fill="#af7146" d="M 1073.902344 197.359375 C 1076.71875 198.179688 1079.808594 198.402344 1082.214844 200.074219 C 1087.652344 204.570312 1090.4375 213.953125 1096.878906 217.0625 C 1107.402344 222.148438 1093.421875 189.019531 1083.933594 182.296875 C 1065.605469 173 1050.320312 187.113281 1073.902344 197.359375 Z M 1073.902344 197.359375 " fill-opacity="1" fill-rule="nonzero"/><path fill="#af7146" d="M 1053.695312 200.34375 C 1049.691406 202.835938 1045.410156 203.097656 1039.761719 201.453125 C 1043.8125 199.246094 1046.039062 194.539062 1049.023438 191.125 C 1044.042969 196.824219 1037.464844 201.109375 1030.242188 203.371094 C 1036.964844 190.984375 1050.167969 176.613281 1065.414062 179.921875 C 1067.480469 182.347656 1063.144531 191.269531 1061.515625 192.804688 C 1059.519531 194.691406 1056.03125 198.890625 1053.695312 200.34375 Z M 1053.695312 200.34375 " fill-opacity="1" fill-rule="nonzero"/><path fill="#27392e" d="M 1098.070312 313.484375 L 1102.039062 290.992188 L 1092.835938 288.113281 C 1092.835938 288.113281 1091.335938 340.929688 1067.246094 340.929688 C 1043.152344 340.929688 1041.652344 288.113281 1041.652344 288.113281 L 1032.449219 290.992188 L 1036.417969 313.484375 C 1037.582031 320.078125 1035.824219 326.839844 1031.628906 332.0625 C 1024.5 340.925781 1014.261719 355.378906 1014.492188 364.980469 C 1014.847656 379.671875 1018.273438 398.460938 1018.273438 398.460938 L 1020.933594 414.625 L 1029.394531 416.574219 C 1054.300781 422.316406 1080.1875 422.316406 1105.09375 416.574219 L 1113.554688 414.625 L 1116.214844 398.460938 C 1116.214844 398.460938 1119.644531 379.671875 1119.996094 364.980469 C 1120.230469 355.378906 1109.988281 340.925781 1102.863281 332.0625 C 1098.667969 326.839844 1096.90625 320.078125 1098.070312 313.484375 Z M 1098.070312 313.484375 " fill-opacity="1" fill-rule="nonzero"/><path fill="#4e725b" d="M 985.679688 336.359375 L 987.574219 344.464844 L 995.8125 344.464844 L 989 349.359375 L 990.109375 360.070312 L 982.691406 350.132812 C 982.691406 350.132812 983.851562 341.816406 985.679688 336.359375 Z M 985.679688 336.359375 " fill-opacity="1" fill-rule="nonzero"/><path fill="#af7146" d="M 1091.15625 304.421875 L 1099.421875 305.839844 L 1098.070312 313.484375 L 1089.789062 311.542969 Z M 1043.332031 304.421875 L 1035.070312 305.839844 L 1036.417969 313.484375 L 1044.703125 311.542969 Z M 1113.554688 414.625 L 1115.304688 403.992188 C 1080.1875 419.652344 1019.492188 405.851562 1019.492188 405.851562 L 1020.84375 414.730469 C 1072.238281 431.289062 1113.554688 414.625 1113.554688 414.625 Z M 1113.554688 414.625 " fill-opacity="1" fill-rule="nonzero"/><path fill="#c97061" d="M 1032.347656 235.210938 C 1031.4375 234.859375 1030.65625 234.21875 1030.046875 233.453125 C 1029.453125 232.679688 1028.984375 231.777344 1028.824219 230.746094 C 1028.75 230.234375 1028.785156 229.683594 1028.953125 229.144531 C 1029.164062 228.621094 1029.511719 228.085938 1030.023438 227.8125 C 1030.5625 227.476562 1031.128906 227.347656 1031.6875 227.3125 C 1031.148438 226.761719 1030.578125 226.246094 1029.949219 225.8125 C 1028.960938 225.152344 1027.839844 224.679688 1026.632812 224.558594 C 1026.5 224.546875 1026.402344 224.429688 1026.414062 224.292969 C 1026.425781 224.175781 1026.523438 224.085938 1026.636719 224.074219 C 1027.953125 223.980469 1029.296875 224.363281 1030.4375 225.023438 C 1031.597656 225.667969 1032.574219 226.574219 1033.421875 227.558594 C 1033.617188 227.789062 1033.589844 228.132812 1033.363281 228.328125 C 1033.246094 228.429688 1033.097656 228.472656 1032.957031 228.457031 L 1032.921875 228.457031 C 1032.082031 228.375 1031.21875 228.402344 1030.613281 228.75 C 1030.007812 229.082031 1029.742188 229.816406 1029.847656 230.628906 C 1030.019531 232.246094 1031.058594 233.886719 1032.535156 234.820312 L 1032.542969 234.824219 C 1032.644531 234.886719 1032.675781 235.019531 1032.609375 235.121094 C 1032.554688 235.210938 1032.445312 235.246094 1032.347656 235.210938 Z M 1100.902344 227.765625 C 1100.328125 227.441406 1099.730469 227.335938 1099.136719 227.316406 C 1099.636719 226.746094 1100.1875 226.21875 1100.796875 225.773438 C 1101.730469 225.113281 1102.804688 224.65625 1103.976562 224.535156 C 1104.078125 224.523438 1104.160156 224.441406 1104.167969 224.335938 C 1104.179688 224.214844 1104.089844 224.109375 1103.96875 224.101562 C 1102.710938 224.003906 1101.40625 224.359375 1100.3125 225.023438 C 1099.199219 225.671875 1098.285156 226.585938 1097.523438 227.589844 C 1097.445312 227.691406 1097.402344 227.828125 1097.414062 227.964844 C 1097.441406 228.261719 1097.707031 228.480469 1098.003906 228.453125 L 1098.035156 228.449219 C 1098.871094 228.371094 1099.71875 228.410156 1100.355469 228.738281 C 1100.988281 229.066406 1101.347656 229.746094 1101.375 230.539062 C 1101.421875 232.128906 1100.539062 233.867188 1099.101562 234.796875 L 1099.09375 234.800781 C 1099 234.863281 1098.957031 234.988281 1099.003906 235.097656 C 1099.050781 235.21875 1099.195312 235.28125 1099.316406 235.230469 C 1100.226562 234.863281 1100.980469 234.167969 1101.519531 233.351562 C 1102.046875 232.523438 1102.417969 231.5625 1102.425781 230.515625 C 1102.441406 229.488281 1101.910156 228.304688 1100.902344 227.765625 Z M 1050.738281 219.011719 C 1051.660156 219.304688 1052.632812 219.457031 1053.617188 219.464844 C 1054.605469 219.460938 1055.601562 219.300781 1056.519531 218.921875 C 1057.4375 218.554688 1058.292969 217.992188 1058.902344 217.222656 C 1058.960938 217.148438 1058.96875 217.042969 1058.914062 216.960938 C 1058.84375 216.863281 1058.707031 216.835938 1058.609375 216.90625 C 1057.859375 217.410156 1057.054688 217.777344 1056.210938 218.003906 C 1055.367188 218.222656 1054.496094 218.339844 1053.621094 218.328125 C 1052.746094 218.328125 1051.863281 218.207031 1050.980469 218.046875 C 1050.09375 217.882812 1049.210938 217.640625 1048.308594 217.421875 C 1048.207031 217.394531 1048.09375 217.4375 1048.039062 217.53125 C 1047.96875 217.648438 1048.007812 217.796875 1048.125 217.867188 C 1048.9375 218.351562 1049.816406 218.730469 1050.738281 219.011719 Z M 1083.339844 217.445312 C 1082.433594 217.660156 1081.550781 217.898438 1080.664062 218.0625 C 1079.777344 218.214844 1078.894531 218.332031 1078.015625 218.328125 C 1077.144531 218.335938 1076.273438 218.214844 1075.433594 217.992188 C 1074.59375 217.761719 1073.792969 217.394531 1073.046875 216.886719 C 1072.960938 216.828125 1072.839844 216.828125 1072.753906 216.898438 C 1072.648438 216.980469 1072.632812 217.136719 1072.71875 217.242188 C 1073.332031 218.007812 1074.195312 218.570312 1075.113281 218.933594 C 1076.035156 219.308594 1077.035156 219.464844 1078.019531 219.464844 C 1079.007812 219.453125 1079.980469 219.296875 1080.894531 219 C 1081.816406 218.714844 1082.691406 218.332031 1083.507812 217.84375 C 1083.585938 217.796875 1083.628906 217.699219 1083.605469 217.605469 C 1083.578125 217.488281 1083.460938 217.414062 1083.339844 217.445312 Z M 1061.210938 227.523438 C 1061.824219 226.789062 1062.574219 226.230469 1063.410156 225.871094 C 1064.253906 225.519531 1065.160156 225.324219 1066.074219 225.320312 C 1066.988281 225.304688 1067.902344 225.476562 1068.742188 225.816406 C 1069.582031 226.164062 1070.332031 226.726562 1070.894531 227.496094 C 1070.949219 227.574219 1071.050781 227.609375 1071.144531 227.578125 C 1071.261719 227.539062 1071.320312 227.414062 1071.28125 227.300781 C 1070.925781 226.292969 1070.113281 225.464844 1069.171875 224.949219 C 1068.226562 224.414062 1067.136719 224.183594 1066.0625 224.183594 C 1064.992188 224.199219 1063.910156 224.445312 1062.96875 224.980469 C 1062.027344 225.503906 1061.222656 226.304688 1060.796875 227.273438 C 1060.753906 227.371094 1060.78125 227.492188 1060.867188 227.5625 C 1060.972656 227.644531 1061.125 227.628906 1061.210938 227.523438 Z M 1078.046875 235.519531 C 1076.121094 236.4375 1074.101562 237.128906 1072.03125 237.554688 C 1069.964844 237.976562 1067.851562 238.179688 1065.75 238.070312 C 1063.644531 238.019531 1061.554688 237.65625 1059.515625 237.097656 C 1057.476562 236.539062 1055.503906 235.734375 1053.613281 234.742188 C 1053.503906 234.6875 1053.371094 234.71875 1053.300781 234.820312 C 1053.222656 234.929688 1053.25 235.078125 1053.359375 235.15625 C 1055.144531 236.410156 1057.144531 237.367188 1059.230469 238.050781 C 1061.316406 238.734375 1063.507812 239.101562 1065.707031 239.210938 C 1067.910156 239.261719 1070.125 239.050781 1072.253906 238.496094 C 1074.378906 237.945312 1076.429688 237.089844 1078.257812 235.898438 C 1078.347656 235.839844 1078.382812 235.722656 1078.335938 235.621094 C 1078.285156 235.515625 1078.15625 235.46875 1078.046875 235.519531 Z M 1065.785156 262.433594 C 1067.0625 262.453125 1068.34375 262.367188 1069.597656 262.117188 C 1070.847656 261.875 1072.082031 261.511719 1073.226562 260.945312 C 1073.316406 260.902344 1073.367188 260.800781 1073.339844 260.699219 C 1073.3125 260.582031 1073.195312 260.511719 1073.078125 260.539062 C 1068.277344 261.683594 1063.332031 261.523438 1058.574219 260.226562 C 1058.46875 260.199219 1058.351562 260.246094 1058.296875 260.347656 C 1058.234375 260.46875 1058.28125 260.613281 1058.398438 260.675781 C 1059.527344 261.269531 1060.746094 261.671875 1061.988281 261.960938 C 1063.230469 262.257812 1064.503906 262.402344 1065.785156 262.433594 Z M 1012.589844 350.175781 C 1013.113281 353.488281 1013.679688 356.796875 1014.28125 360.097656 C 1014.300781 360.210938 1014.402344 360.289062 1014.515625 360.277344 C 1014.636719 360.261719 1014.722656 360.15625 1014.710938 360.039062 C 1014.359375 356.699219 1013.976562 353.363281 1013.546875 350.039062 L 1012.203125 340.0625 L 1010.703125 330.109375 C 1010.183594 326.796875 1009.621094 323.488281 1009.023438 320.183594 C 1009 320.0625 1008.886719 319.972656 1008.761719 319.988281 C 1008.628906 320 1008.53125 320.121094 1008.546875 320.253906 C 1008.898438 323.59375 1009.289062 326.925781 1009.71875 330.253906 L 1011.074219 340.226562 L 1011.417969 342.484375 C 1011.09375 341.863281 1010.78125 341.230469 1010.496094 340.589844 C 1009.9375 339.300781 1009.378906 338.011719 1008.945312 336.671875 C 1008.457031 335.355469 1008.058594 334.003906 1007.664062 332.648438 C 1007.269531 331.292969 1006.914062 329.917969 1006.574219 328.546875 L 1006.574219 328.539062 C 1006.546875 328.429688 1006.441406 328.351562 1006.324219 328.355469 C 1006.191406 328.363281 1006.089844 328.476562 1006.09375 328.609375 C 1006.167969 330.0625 1006.402344 331.480469 1006.699219 332.890625 C 1006.996094 334.300781 1007.417969 335.679688 1007.871094 337.054688 C 1008.375 338.40625 1008.945312 339.742188 1009.628906 341.019531 C 1010.207031 342.085938 1010.894531 343.089844 1011.65625 344.035156 Z M 1128.207031 328.363281 C 1128.078125 328.328125 1127.945312 328.410156 1127.914062 328.539062 L 1127.910156 328.546875 C 1127.570312 329.917969 1127.214844 331.292969 1126.824219 332.648438 C 1126.429688 334.003906 1126.03125 335.355469 1125.542969 336.671875 C 1125.109375 338.011719 1124.554688 339.300781 1123.992188 340.589844 C 1123.707031 341.230469 1123.398438 341.863281 1123.070312 342.484375 L 1123.414062 340.226562 L 1124.765625 330.25 C 1125.199219 326.925781 1125.585938 323.589844 1125.9375 320.253906 C 1125.949219 320.128906 1125.867188 320.011719 1125.738281 319.988281 C 1125.609375 319.964844 1125.484375 320.054688 1125.460938 320.183594 C 1124.863281 323.488281 1124.300781 326.796875 1123.78125 330.109375 L 1122.285156 340.0625 L 1120.945312 350.039062 C 1120.519531 353.367188 1120.136719 356.699219 1119.785156 360.039062 C 1119.777344 360.152344 1119.851562 360.253906 1119.964844 360.273438 C 1120.082031 360.296875 1120.195312 360.21875 1120.214844 360.101562 C 1120.816406 356.796875 1121.382812 353.488281 1121.90625 350.175781 L 1122.835938 344.035156 C 1123.59375 343.089844 1124.28125 342.085938 1124.863281 341.019531 C 1125.542969 339.742188 1126.113281 338.40625 1126.617188 337.050781 C 1127.070312 335.679688 1127.492188 334.296875 1127.789062 332.886719 C 1128.085938 331.476562 1128.320312 330.058594 1128.390625 328.609375 C 1128.398438 328.496094 1128.320312 328.390625 1128.207031 328.363281 Z M 980.792969 404.230469 C 981.605469 404.453125 982.402344 404.734375 983.195312 405.03125 C 983.996094 405.316406 984.753906 405.691406 985.558594 406.03125 L 985.566406 406.035156 C 985.652344 406.070312 985.75 406.054688 985.816406 405.980469 C 985.894531 405.890625 985.890625 405.753906 985.800781 405.671875 C 984.472656 404.476562 982.824219 403.636719 981.109375 403.136719 C 980.25 402.890625 979.371094 402.699219 978.480469 402.625 C 977.589844 402.542969 976.699219 402.519531 975.796875 402.660156 C 975.695312 402.675781 975.613281 402.753906 975.59375 402.863281 C 975.574219 402.996094 975.664062 403.121094 975.796875 403.140625 L 975.8125 403.144531 C 976.648438 403.28125 977.5 403.425781 978.328125 403.609375 C 979.160156 403.792969 979.984375 403.984375 980.792969 404.230469 Z M 911.511719 499.480469 C 911.1875 498.75 910.972656 498.023438 910.488281 497.230469 C 910.242188 496.847656 909.878906 496.460938 909.390625 496.242188 C 908.902344 496.019531 908.386719 496.003906 907.929688 496.0625 C 907.019531 496.1875 906.1875 496.582031 905.503906 497.15625 C 904.828125 497.738281 904.304688 498.5 904.023438 499.355469 C 903.738281 500.210938 903.71875 501.097656 903.789062 501.925781 C 903.953125 503.582031 904.332031 505.082031 904.648438 506.652344 C 904.714844 506.957031 904.78125 507.261719 904.847656 507.566406 C 904.203125 505.46875 903.542969 503.375 902.867188 501.285156 C 902.398438 499.78125 901.746094 498.03125 900.195312 496.992188 C 899.449219 496.480469 898.449219 496.210938 897.5 496.40625 C 896.625 496.578125 895.886719 497.074219 895.316406 497.683594 C 895.3125 497.582031 895.308594 497.480469 895.296875 497.378906 C 895.246094 496.980469 895.183594 496.582031 895.058594 496.199219 C 894.941406 495.8125 894.800781 495.433594 894.574219 495.078125 C 894.535156 495.015625 894.464844 494.96875 894.386719 494.960938 C 894.246094 494.945312 894.121094 495.046875 894.105469 495.1875 C 894.054688 495.59375 894.066406 495.980469 894.078125 496.363281 C 894.082031 496.75 894.128906 497.125 894.164062 497.503906 C 894.21875 497.882812 894.261719 498.261719 894.347656 498.636719 C 894.375 498.757812 894.402344 498.878906 894.429688 499 C 894.242188 499.394531 894.105469 499.8125 894.023438 500.226562 C 893.839844 501.082031 893.828125 501.941406 893.875 502.769531 C 894.007812 504.429688 894.253906 505.988281 894.480469 507.585938 C 894.9375 510.761719 895.402344 513.941406 895.945312 517.105469 C 895.964844 517.230469 896.078125 517.316406 896.203125 517.308594 C 896.335938 517.296875 896.433594 517.179688 896.425781 517.046875 C 896.160156 513.84375 895.820312 510.652344 895.46875 507.460938 C 895.324219 505.867188 895.050781 504.253906 894.960938 502.710938 C 894.875 501.175781 895.085938 499.632812 896.039062 498.570312 C 896.488281 498.035156 897.082031 497.625 897.71875 497.492188 C 898.351562 497.351562 899.023438 497.507812 899.605469 497.890625 C 900.816406 498.652344 901.410156 500.117188 901.953125 501.601562 C 903.046875 504.617188 904.148438 507.632812 905.324219 510.625 C 905.359375 510.707031 905.441406 510.746094 905.53125 510.746094 C 905.910156 512.488281 906.300781 514.226562 906.71875 515.957031 C 906.746094 516.078125 906.863281 516.15625 906.988281 516.140625 C 907.121094 516.121094 907.210938 515.996094 907.191406 515.863281 L 907.1875 515.847656 C 906.722656 512.710938 906.179688 509.59375 905.628906 506.480469 C 905.394531 504.929688 904.988281 503.347656 904.871094 501.839844 C 904.816406 501.09375 904.851562 500.359375 905.078125 499.707031 C 905.296875 499.058594 905.710938 498.472656 906.242188 498.027344 C 906.761719 497.570312 907.417969 497.257812 908.078125 497.15625 C 908.753906 497.058594 909.21875 497.246094 909.59375 497.820312 C 909.953125 498.375 910.230469 499.167969 910.554688 499.882812 L 911.511719 502.0625 C 912.800781 504.960938 914.09375 507.855469 915.460938 510.71875 C 915.507812 510.816406 915.625 510.867188 915.730469 510.828125 C 915.84375 510.785156 915.902344 510.664062 915.859375 510.550781 C 914.757812 507.574219 913.585938 504.625 912.40625 501.683594 Z M 926.410156 503.953125 C 925.886719 503.503906 925.28125 503.164062 924.632812 502.984375 C 924.113281 502.832031 923.582031 502.78125 923.050781 502.808594 C 922.910156 502.265625 922.773438 501.722656 922.632812 501.183594 C 922.460938 500.535156 922.269531 499.847656 921.894531 499.203125 C 921.527344 498.554688 920.980469 497.960938 920.234375 497.628906 C 919.484375 497.269531 918.539062 497.363281 917.863281 497.699219 C 917.160156 498.023438 916.589844 498.492188 916.101562 499.042969 C 915.136719 500.148438 914.648438 501.671875 914.699219 503.089844 C 914.742188 504.507812 914.964844 505.796875 915.183594 507.121094 C 915.636719 509.757812 916.242188 512.367188 917.054688 514.910156 C 917.089844 515.023438 917.210938 515.097656 917.332031 515.074219 C 917.464844 515.046875 917.546875 514.917969 917.519531 514.785156 C 916.984375 512.191406 916.511719 509.589844 916.167969 506.972656 C 916.027344 505.667969 915.792969 504.328125 915.785156 503.085938 C 915.765625 501.847656 916.171875 500.6875 916.964844 499.785156 C 917.71875 498.894531 918.890625 498.175781 919.808594 498.613281 C 920.820312 499.027344 921.328125 500.210938 921.699219 501.449219 C 922.480469 503.984375 923.273438 506.523438 924.140625 509.039062 C 924.175781 509.144531 924.285156 509.207031 924.390625 509.179688 C 924.507812 509.15625 924.582031 509.039062 924.554688 508.921875 C 924.140625 507.101562 923.6875 505.296875 923.226562 503.492188 C 923.589844 503.617188 923.945312 503.75 924.28125 503.914062 C 924.78125 504.167969 925.257812 504.449219 925.660156 504.8125 C 926.074219 505.160156 926.410156 505.578125 926.703125 506.046875 C 926.988281 506.519531 927.191406 507.054688 927.394531 507.632812 L 927.398438 507.640625 C 927.425781 507.71875 927.492188 507.777344 927.578125 507.785156 C 927.703125 507.800781 927.8125 507.714844 927.824219 507.59375 C 927.902344 506.945312 927.816406 506.273438 927.578125 505.632812 C 927.347656 504.988281 926.921875 504.410156 926.410156 503.953125 Z M 900.378906 492.523438 C 901.800781 492.605469 903.210938 492.449219 904.582031 492.222656 C 907.203125 491.734375 909.824219 490.96875 912.203125 489.664062 C 913.960938 490.882812 915.972656 491.757812 918.078125 492.089844 C 920.289062 492.472656 922.566406 492.34375 924.695312 491.757812 C 924.800781 491.730469 924.871094 491.625 924.851562 491.515625 C 924.835938 491.398438 924.722656 491.316406 924.605469 491.335938 C 922.480469 491.667969 920.316406 491.636719 918.253906 491.183594 C 916.199219 490.710938 914.234375 489.859375 912.566406 488.585938 C 912.402344 488.457031 912.175781 488.433594 911.980469 488.535156 L 911.96875 488.542969 C 909.617188 489.8125 907.042969 490.683594 904.386719 491.203125 C 903.066406 491.488281 901.734375 491.703125 900.410156 491.6875 C 899.085938 491.691406 897.761719 491.449219 896.601562 490.808594 C 896.496094 490.75 896.359375 490.78125 896.285156 490.878906 C 896.207031 490.988281 896.234375 491.140625 896.34375 491.21875 C 897.511719 492.054688 898.96875 492.425781 900.378906 492.523438 Z M 1235.035156 491.703125 C 1237.492188 491.125 1239.804688 490.175781 1242.042969 489.144531 C 1243.40625 490.019531 1244.816406 490.851562 1246.339844 491.476562 C 1247.9375 492.15625 1249.683594 492.628906 1251.445312 492.550781 C 1251.554688 492.546875 1251.644531 492.460938 1251.652344 492.351562 C 1251.660156 492.230469 1251.570312 492.128906 1251.453125 492.117188 C 1249.785156 491.976562 1248.207031 491.390625 1246.707031 490.664062 C 1245.214844 489.914062 1243.789062 489.019531 1242.382812 488.078125 C 1242.242188 487.980469 1242.050781 487.953125 1241.878906 488.027344 L 1241.863281 488.03125 C 1239.515625 489.023438 1237.210938 490.078125 1234.789062 490.683594 C 1232.390625 491.324219 1229.855469 491.496094 1227.453125 490.746094 C 1227.339844 490.710938 1227.210938 490.765625 1227.160156 490.878906 C 1227.105469 491 1227.160156 491.144531 1227.28125 491.199219 C 1229.691406 492.304688 1232.5 492.273438 1235.035156 491.703125 Z M 1254.378906 503.390625 C 1254.394531 503.472656 1254.460938 503.542969 1254.546875 503.5625 C 1254.664062 503.589844 1254.78125 503.519531 1254.808594 503.398438 L 1254.8125 503.386719 C 1254.972656 502.691406 1255.058594 502.003906 1255.132812 501.3125 C 1255.214844 500.625 1255.242188 499.9375 1255.269531 499.246094 C 1255.28125 498.558594 1255.289062 497.871094 1255.246094 497.175781 C 1255.210938 496.484375 1255.164062 495.792969 1255.042969 495.09375 L 1255.039062 495.078125 C 1255.023438 494.984375 1254.953125 494.902344 1254.855469 494.878906 C 1254.722656 494.851562 1254.589844 494.933594 1254.5625 495.066406 C 1254.40625 495.75 1254.324219 496.441406 1254.253906 497.136719 C 1254.175781 497.828125 1254.152344 498.523438 1254.128906 499.21875 C 1254.125 499.914062 1254.117188 500.613281 1254.164062 501.308594 C 1254.203125 502.003906 1254.253906 502.699219 1254.378906 503.390625 Z M 1255.097656 508.492188 C 1254.734375 507.078125 1253.964844 505.878906 1253.332031 504.714844 C 1252.683594 503.546875 1252.097656 502.34375 1251.574219 501.109375 C 1251.3125 500.492188 1251.078125 499.882812 1250.839844 499.238281 C 1250.589844 498.59375 1250.3125 497.90625 1249.800781 497.285156 C 1249.300781 496.652344 1248.425781 496.21875 1247.589844 496.25 C 1246.75 496.261719 1246.03125 496.582031 1245.402344 496.945312 C 1245.085938 497.132812 1244.789062 497.335938 1244.507812 497.550781 C 1244.230469 497.765625 1243.925781 497.992188 1243.65625 498.355469 C 1243.613281 498.40625 1243.601562 498.480469 1243.566406 498.539062 C 1243.441406 498.300781 1243.292969 498.066406 1243.105469 497.851562 C 1242.925781 497.640625 1242.695312 497.414062 1242.394531 497.257812 C 1242.101562 497.105469 1241.78125 497.042969 1241.535156 497.007812 C 1240.496094 496.84375 1239.425781 496.914062 1238.410156 497.207031 C 1237.910156 497.371094 1237.414062 497.550781 1236.925781 497.910156 C 1236.417969 498.273438 1236.113281 498.835938 1235.910156 499.28125 C 1235.496094 500.199219 1235.136719 501.148438 1234.945312 502.136719 C 1234.816406 502.734375 1234.742188 503.339844 1234.695312 503.945312 C 1234.554688 503.652344 1234.40625 503.363281 1234.277344 503.0625 C 1233.789062 501.921875 1233.378906 500.746094 1233.058594 499.550781 C 1232.890625 498.976562 1232.785156 498.25 1232.269531 497.59375 C 1231.742188 496.921875 1230.871094 496.652344 1230.125 496.683594 C 1229.359375 496.710938 1228.636719 496.992188 1228.042969 497.46875 C 1227.445312 497.976562 1227.089844 498.636719 1226.882812 499.320312 C 1226.484375 500.703125 1226.695312 502.109375 1227.085938 503.347656 C 1227.449219 504.546875 1227.914062 505.660156 1228.15625 506.800781 C 1227.777344 507.347656 1227.445312 507.941406 1227.253906 508.597656 C 1227.039062 509.320312 1227.015625 510.089844 1227.136719 510.808594 C 1227.160156 510.929688 1227.269531 511.019531 1227.394531 511.007812 C 1227.527344 511 1227.628906 510.886719 1227.617188 510.75 C 1227.574219 510.078125 1227.65625 509.414062 1227.878906 508.800781 C 1228.105469 508.1875 1228.472656 507.628906 1228.902344 507.113281 C 1228.964844 507.035156 1229 506.933594 1228.984375 506.824219 L 1228.980469 506.800781 C 1228.789062 505.484375 1228.316406 504.277344 1228.015625 503.089844 C 1227.710938 501.914062 1227.589844 500.699219 1227.90625 499.628906 C 1228.066406 499.109375 1228.359375 498.621094 1228.734375 498.316406 C 1229.132812 498.007812 1229.652344 497.808594 1230.15625 497.800781 C 1230.660156 497.792969 1231.117188 497.96875 1231.386719 498.308594 C 1231.679688 498.644531 1231.816406 499.21875 1231.992188 499.847656 C 1232.347656 501.089844 1232.792969 502.304688 1233.320312 503.480469 C 1233.585938 504.070312 1233.863281 504.652344 1234.175781 505.214844 C 1234.347656 505.535156 1234.542969 505.847656 1234.714844 506.144531 C 1234.773438 506.800781 1234.867188 507.449219 1235.027344 508.082031 C 1235.042969 508.140625 1235.085938 508.1875 1235.136719 508.222656 C 1235.035156 508.886719 1234.820312 509.609375 1234.722656 510.304688 L 1234.015625 514.039062 C 1233.996094 514.148438 1234.0625 514.257812 1234.171875 514.289062 C 1234.289062 514.320312 1234.40625 514.25 1234.4375 514.136719 L 1235.4375 510.472656 L 1235.914062 508.628906 C 1236.070312 508.015625 1236.183594 507.222656 1235.921875 506.515625 C 1235.78125 506.117188 1235.609375 505.78125 1235.4375 505.457031 C 1235.488281 504.410156 1235.636719 503.375 1235.910156 502.371094 C 1236.164062 501.46875 1236.480469 500.585938 1236.890625 499.75 C 1237.097656 499.320312 1237.292969 499.003906 1237.585938 498.804688 C 1237.886719 498.585938 1238.3125 498.425781 1238.738281 498.296875 C 1239.585938 498.03125 1240.496094 497.949219 1241.378906 498.066406 C 1241.847656 498.125 1242.03125 498.207031 1242.320312 498.53125 C 1242.585938 498.828125 1242.792969 499.207031 1242.972656 499.625 C 1243.136719 500.050781 1243.289062 500.488281 1243.433594 500.929688 C 1243.621094 502.117188 1243.9375 503.28125 1244.347656 504.40625 C 1244.367188 504.5 1244.386719 504.589844 1244.40625 504.679688 C 1244.203125 505.492188 1244.382812 506.195312 1244.378906 506.804688 C 1244.375 507.542969 1244.386719 508.320312 1244.449219 509.070312 C 1244.558594 510.585938 1244.777344 512.089844 1245.09375 513.566406 C 1245.117188 513.675781 1245.222656 513.75 1245.335938 513.734375 C 1245.457031 513.71875 1245.539062 513.605469 1245.519531 513.488281 C 1245.304688 512.011719 1245.1875 510.527344 1245.175781 509.042969 C 1245.171875 508.292969 1245.179688 507.566406 1245.210938 506.808594 C 1245.214844 506.007812 1245.082031 505.246094 1245.3125 504.761719 C 1245.359375 504.664062 1245.367188 504.550781 1245.332031 504.441406 L 1245.324219 504.421875 C 1244.894531 503.167969 1244.609375 501.871094 1244.421875 500.5625 C 1244.335938 499.875 1244.238281 499.277344 1244.515625 498.984375 C 1244.808594 498.621094 1245.4375 498.195312 1245.949219 497.890625 C 1246.488281 497.582031 1247.066406 497.363281 1247.59375 497.367188 C 1248.125 497.367188 1248.578125 497.601562 1248.933594 498.019531 C 1249.652344 498.878906 1249.988281 500.308594 1250.574219 501.542969 C 1251.121094 502.804688 1251.738281 504.035156 1252.417969 505.226562 C 1253.105469 506.421875 1253.863281 507.515625 1254.214844 508.738281 C 1254.941406 511.207031 1254.320312 514.003906 1254.800781 516.75 C 1254.824219 516.875 1254.941406 516.964844 1255.070312 516.949219 C 1255.203125 516.933594 1255.296875 516.8125 1255.28125 516.679688 C 1254.957031 514.046875 1255.824219 511.328125 1255.097656 508.492188 Z M 1164.222656 403.773438 C 1163.164062 403.640625 1162.09375 403.628906 1161.03125 403.679688 C 1159.964844 403.722656 1158.902344 403.871094 1157.851562 404.0625 C 1156.804688 404.273438 1155.769531 404.53125 1154.761719 404.882812 C 1153.753906 405.230469 1152.761719 405.636719 1151.828125 406.152344 C 1151.734375 406.207031 1151.683594 406.316406 1151.710938 406.425781 C 1151.742188 406.554688 1151.875 406.636719 1152.007812 406.601562 C 1153.027344 406.351562 1154.027344 406.078125 1155.039062 405.839844 C 1156.050781 405.609375 1157.054688 405.371094 1158.070312 405.179688 C 1159.082031 404.972656 1160.101562 404.8125 1161.128906 404.644531 C 1162.152344 404.484375 1163.183594 404.359375 1164.226562 404.207031 C 1164.320312 404.191406 1164.398438 404.117188 1164.410156 404.019531 C 1164.425781 403.898438 1164.339844 403.789062 1164.222656 403.773438 Z M 1217.703125 476.113281 C 1216.671875 476.257812 1215.667969 476.566406 1214.703125 476.972656 C 1213.734375 477.371094 1212.824219 477.898438 1211.964844 478.5 C 1211.113281 479.113281 1210.316406 479.800781 1209.621094 480.585938 C 1208.921875 481.367188 1208.300781 482.210938 1207.824219 483.140625 C 1207.777344 483.234375 1207.796875 483.355469 1207.878906 483.429688 C 1207.976562 483.523438 1208.132812 483.515625 1208.222656 483.414062 C 1208.90625 482.671875 1209.59375 481.953125 1210.328125 481.289062 C 1211.066406 480.628906 1211.820312 479.996094 1212.625 479.425781 C 1213.421875 478.847656 1214.265625 478.332031 1215.125 477.84375 C 1215.992188 477.359375 1216.894531 476.941406 1217.820312 476.53125 C 1217.90625 476.492188 1217.960938 476.398438 1217.949219 476.300781 C 1217.929688 476.179688 1217.820312 476.097656 1217.703125 476.113281 Z M 1026.746094 491.171875 C 1025.109375 491.371094 1023.484375 491.71875 1021.898438 492.230469 C 1020.308594 492.730469 1018.785156 493.464844 1017.34375 494.308594 C 1015.933594 495.203125 1014.589844 496.1875 1013.34375 497.269531 C 1012.09375 498.351562 1010.910156 499.492188 1009.78125 500.683594 C 1009.699219 500.765625 1009.6875 500.90625 1009.761719 501 C 1009.84375 501.105469 1009.996094 501.125 1010.101562 501.042969 L 1013.972656 498.042969 C 1015.261719 497.058594 1016.558594 496.097656 1017.9375 495.28125 C 1019.292969 494.421875 1020.730469 493.730469 1022.226562 493.140625 C 1023.71875 492.542969 1025.273438 492.074219 1026.835938 491.59375 C 1026.933594 491.566406 1027 491.46875 1026.988281 491.359375 C 1026.972656 491.242188 1026.863281 491.15625 1026.746094 491.171875 Z M 1050.566406 506.894531 C 1050.578125 507.03125 1050.703125 507.132812 1050.84375 507.121094 C 1051.308594 507.070312 1051.746094 506.933594 1052.171875 506.765625 C 1052.601562 506.601562 1053 506.371094 1053.386719 506.125 C 1053.761719 505.867188 1054.128906 505.589844 1054.445312 505.257812 C 1054.765625 504.929688 1055.0625 504.578125 1055.289062 504.167969 C 1055.320312 504.105469 1055.324219 504.027344 1055.292969 503.960938 C 1055.238281 503.847656 1055.101562 503.800781 1054.988281 503.855469 C 1054.578125 504.046875 1054.210938 504.277344 1053.839844 504.496094 C 1053.46875 504.710938 1053.117188 504.949219 1052.757812 505.175781 C 1052.410156 505.414062 1052.050781 505.632812 1051.703125 505.886719 C 1051.351562 506.136719 1050.996094 506.378906 1050.652344 506.675781 C 1050.59375 506.726562 1050.554688 506.808594 1050.566406 506.894531 Z M 1038.527344 516.5 C 1037.886719 516.734375 1037.257812 516.921875 1036.613281 517.027344 C 1035.972656 517.121094 1035.332031 517.167969 1034.691406 517.128906 C 1034.046875 517.101562 1033.414062 516.988281 1032.789062 516.828125 C 1032.164062 516.660156 1031.558594 516.410156 1030.945312 516.113281 C 1030.859375 516.070312 1030.75 516.078125 1030.671875 516.144531 C 1030.570312 516.234375 1030.558594 516.390625 1030.648438 516.492188 C 1031.136719 517.050781 1031.769531 517.46875 1032.457031 517.765625 C 1033.140625 518.070312 1033.886719 518.222656 1034.636719 518.265625 C 1035.382812 518.292969 1036.140625 518.207031 1036.851562 517.964844 C 1037.558594 517.730469 1038.226562 517.371094 1038.761719 516.863281 C 1038.820312 516.804688 1038.847656 516.707031 1038.8125 516.625 C 1038.769531 516.511719 1038.640625 516.453125 1038.527344 516.5 Z M 1003.050781 492.902344 C 1002.214844 493.105469 1001.382812 493.332031 1000.550781 493.554688 C 1000.265625 492.628906 999.457031 491.898438 998.609375 491.511719 C 998.132812 491.296875 997.636719 491.144531 997.128906 491.085938 C 996.625 491.023438 996.121094 491.011719 995.617188 491.109375 C 995.539062 491.125 995.464844 491.179688 995.433594 491.265625 C 995.382812 491.394531 995.445312 491.539062 995.574219 491.589844 L 995.582031 491.589844 C 996.03125 491.769531 996.472656 491.898438 996.902344 492.054688 C 997.324219 492.214844 997.742188 492.359375 998.132812 492.546875 C 998.53125 492.71875 998.894531 492.929688 999.25 493.160156 C 999.484375 493.320312 999.703125 493.511719 999.917969 493.71875 C 998.574219 494.085938 997.238281 494.46875 995.90625 494.886719 C 994.535156 495.316406 993.175781 495.800781 991.828125 496.308594 C 991.617188 495.867188 991.253906 495.496094 990.863281 495.226562 C 990.332031 494.847656 989.726562 494.636719 989.128906 494.484375 C 988.527344 494.351562 987.917969 494.273438 987.316406 494.289062 C 986.714844 494.296875 986.113281 494.351562 985.527344 494.519531 C 985.441406 494.542969 985.371094 494.613281 985.351562 494.707031 C 985.324219 494.84375 985.414062 494.972656 985.546875 495 L 985.554688 495 C 986.125 495.113281 986.6875 495.1875 987.242188 495.28125 C 987.792969 495.382812 988.339844 495.464844 988.867188 495.59375 C 989.71875 495.796875 990.53125 496.046875 991.167969 496.566406 C 990.417969 496.859375 989.664062 497.140625 988.917969 497.453125 C 986.828125 498.386719 984.773438 499.414062 982.816406 500.617188 C 982.519531 500.222656 982.183594 499.859375 981.808594 499.535156 C 981.347656 499.128906 980.828125 498.796875 980.289062 498.507812 C 979.738281 498.230469 979.171875 497.996094 978.574219 497.851562 C 977.980469 497.703125 977.371094 497.605469 976.757812 497.628906 C 976.664062 497.632812 976.578125 497.691406 976.539062 497.78125 C 976.484375 497.90625 976.539062 498.050781 976.667969 498.105469 L 978.25 498.789062 C 978.757812 499.03125 979.269531 499.257812 979.765625 499.519531 C 980.269531 499.765625 980.75 500.050781 981.246094 500.324219 L 982.285156 500.941406 C 980.191406 502.277344 978.210938 503.804688 976.460938 505.5625 C 976.375 505.648438 976.367188 505.785156 976.445312 505.882812 C 976.527344 505.988281 976.683594 506.003906 976.785156 505.921875 C 978.699219 504.386719 980.714844 503 982.824219 501.773438 C 984.9375 500.550781 987.121094 499.449219 989.375 498.5 C 991.605469 497.496094 993.90625 496.648438 996.214844 495.804688 L 1003.175781 493.316406 C 1003.277344 493.277344 1003.339844 493.167969 1003.3125 493.058594 C 1003.285156 492.941406 1003.164062 492.871094 1003.050781 492.902344 Z M 1065.96875 537.800781 L 1057.746094 534.457031 L 1049.46875 531.257812 C 1046.699219 530.21875 1043.925781 529.191406 1041.125 528.230469 C 1041.007812 528.191406 1040.878906 528.246094 1040.828125 528.363281 C 1040.773438 528.484375 1040.824219 528.628906 1040.949219 528.683594 C 1043.648438 529.898438 1046.375 531.046875 1049.105469 532.183594 L 1057.328125 535.515625 L 1065.609375 538.699219 C 1068.382812 539.734375 1071.15625 540.761719 1073.960938 541.714844 C 1074.0625 541.75 1074.179688 541.703125 1074.226562 541.601562 C 1074.277344 541.492188 1074.226562 541.363281 1074.117188 541.3125 C 1071.421875 540.09375 1068.695312 538.941406 1065.96875 537.800781 Z M 1107.269531 554.847656 C 1106.9375 554.746094 1106.613281 554.71875 1106.289062 554.703125 C 1105.964844 554.679688 1105.644531 554.707031 1105.328125 554.738281 C 1105.011719 554.785156 1104.699219 554.828125 1104.386719 554.929688 C 1104.078125 555.019531 1103.769531 555.125 1103.472656 555.300781 C 1103.417969 555.335938 1103.371094 555.386719 1103.351562 555.453125 C 1103.3125 555.59375 1103.390625 555.742188 1103.53125 555.78125 C 1103.867188 555.878906 1104.191406 555.902344 1104.511719 555.914062 C 1104.835938 555.933594 1105.152344 555.902344 1105.472656 555.867188 C 1105.785156 555.816406 1106.101562 555.765625 1106.410156 555.664062 C 1106.71875 555.566406 1107.027344 555.460938 1107.324219 555.277344 C 1107.375 555.25 1107.410156 555.203125 1107.429688 555.144531 C 1107.46875 555.019531 1107.398438 554.886719 1107.269531 554.847656 Z M 1107.269531 554.847656 " fill-opacity="1" fill-rule="nonzero"/><path fill="#27392e" d="M 1202.203125 523.171875 C 1202.152344 523.277344 1202.023438 523.324219 1201.917969 523.273438 C 1193.164062 519.273438 1183.863281 516.316406 1174.285156 515.570312 C 1169.503906 515.183594 1164.699219 515.367188 1159.898438 515.726562 C 1155.097656 516.085938 1150.277344 516.597656 1145.410156 516.613281 C 1140.554688 516.65625 1135.648438 516.113281 1130.933594 515.0625 C 1126.210938 514.117188 1121.457031 513.296875 1116.695312 512.546875 C 1107.171875 511.042969 1097.605469 509.761719 1088.019531 508.660156 C 1087.886719 508.644531 1087.792969 508.527344 1087.804688 508.394531 C 1087.820312 508.261719 1087.9375 508.167969 1088.066406 508.175781 C 1097.695312 508.980469 1107.296875 510.085938 1116.855469 511.507812 C 1121.632812 512.234375 1126.402344 513.035156 1131.148438 513.960938 C 1135.867188 514.972656 1140.601562 515.542969 1145.40625 515.511719 C 1150.203125 515.519531 1154.996094 515.03125 1159.824219 514.6875 C 1161.59375 514.558594 1163.371094 514.476562 1165.148438 514.425781 C 1166.347656 513.859375 1167.578125 513.363281 1168.847656 512.964844 C 1170.441406 512.464844 1172.085938 512.125 1173.738281 511.855469 C 1175.398438 511.644531 1177.070312 511.503906 1178.742188 511.535156 C 1180.410156 511.5625 1182.082031 511.707031 1183.714844 512.035156 C 1183.832031 512.058594 1183.910156 512.171875 1183.886719 512.289062 C 1183.863281 512.394531 1183.769531 512.46875 1183.667969 512.464844 C 1182.019531 512.425781 1180.386719 512.417969 1178.757812 512.503906 C 1177.128906 512.589844 1175.507812 512.71875 1173.902344 512.984375 C 1172.289062 513.195312 1170.695312 513.535156 1169.113281 513.925781 C 1168.550781 514.0625 1167.992188 514.222656 1167.433594 514.382812 C 1169.746094 514.375 1172.058594 514.453125 1174.363281 514.664062 C 1179.203125 515.105469 1183.992188 516.066406 1188.621094 517.511719 C 1193.25 518.953125 1197.742188 520.785156 1202.101562 522.882812 C 1202.210938 522.933594 1202.253906 523.0625 1202.203125 523.171875 Z M 1117.652344 470.292969 C 1118.550781 469.074219 1119.488281 467.90625 1120.511719 466.816406 C 1121.53125 465.726562 1122.605469 464.6875 1123.777344 463.769531 C 1124.917969 462.8125 1126.15625 461.976562 1127.433594 461.207031 C 1128.714844 460.441406 1130.058594 459.773438 1131.445312 459.167969 C 1131.539062 459.128906 1131.59375 459.023438 1131.570312 458.921875 C 1131.542969 458.804688 1131.429688 458.730469 1131.3125 458.757812 C 1129.804688 459.101562 1128.351562 459.664062 1126.96875 460.359375 C 1125.582031 461.058594 1124.289062 461.933594 1123.0625 462.886719 C 1121.871094 463.882812 1120.742188 464.960938 1119.761719 466.160156 C 1118.78125 467.363281 1117.917969 468.65625 1117.238281 470.039062 C 1117.1875 470.144531 1117.21875 470.273438 1117.3125 470.34375 C 1117.421875 470.421875 1117.574219 470.398438 1117.652344 470.292969 Z M 1014.4375 465.398438 C 1013.453125 464.464844 1012.371094 463.640625 1011.214844 462.9375 C 1010.054688 462.25 1008.851562 461.636719 1007.597656 461.15625 C 1006.339844 460.675781 1005.0625 460.269531 1003.726562 460.050781 C 1003.617188 460.03125 1003.503906 460.09375 1003.460938 460.199219 C 1003.410156 460.324219 1003.472656 460.464844 1003.597656 460.515625 L 1003.609375 460.519531 C 1004.820312 460.992188 1006.03125 461.507812 1007.199219 462.070312 C 1008.371094 462.640625 1009.519531 463.242188 1010.625 463.914062 C 1011.742188 464.566406 1012.777344 465.332031 1013.796875 466.121094 C 1014.808594 466.929688 1015.703125 467.851562 1016.589844 468.816406 L 1016.597656 468.828125 C 1016.667969 468.898438 1016.777344 468.917969 1016.867188 468.867188 C 1016.972656 468.804688 1017.007812 468.671875 1016.945312 468.570312 C 1016.269531 467.40625 1015.421875 466.328125 1014.4375 465.398438 Z M 1012.074219 519.960938 C 1008.988281 519.234375 1005.898438 518.511719 1002.792969 517.851562 C 999.683594 517.214844 996.558594 516.636719 993.417969 516.132812 C 987.140625 515.136719 980.796875 514.511719 974.433594 514.285156 C 971.222656 514.230469 968.023438 514.484375 964.859375 514.917969 C 962.222656 515.320312 959.613281 515.847656 957.019531 516.457031 C 956.007812 516.167969 954.972656 515.960938 953.929688 515.820312 C 952.738281 515.652344 951.53125 515.59375 950.328125 515.589844 C 949.125 515.605469 947.917969 515.675781 946.726562 515.859375 C 945.539062 516.03125 944.355469 516.273438 943.210938 516.648438 C 943.109375 516.683594 943.035156 516.785156 943.046875 516.898438 C 943.058594 517.035156 943.175781 517.132812 943.308594 517.121094 C 944.492188 517.023438 945.660156 516.914062 946.828125 516.847656 C 948 516.789062 949.167969 516.730469 950.335938 516.730469 C 951.503906 516.710938 952.671875 516.746094 953.847656 516.785156 C 954.324219 516.800781 954.804688 516.832031 955.285156 516.859375 C 949.1875 518.4375 943.214844 520.429688 937.414062 522.855469 C 937.292969 522.90625 937.234375 523.046875 937.28125 523.167969 C 937.332031 523.292969 937.472656 523.351562 937.597656 523.300781 C 940.550781 522.179688 943.558594 521.1875 946.585938 520.269531 C 949.605469 519.339844 952.652344 518.5 955.726562 517.769531 C 958.804688 517.070312 961.894531 516.441406 965.011719 515.992188 C 968.132812 515.582031 971.269531 515.351562 974.402344 515.425781 C 980.714844 515.589844 987.011719 516.214844 993.277344 517.09375 C 999.539062 517.976562 1005.761719 519.152344 1011.984375 520.382812 C 1012.097656 520.40625 1012.210938 520.335938 1012.238281 520.222656 C 1012.265625 520.105469 1012.191406 519.988281 1012.074219 519.960938 Z M 1012.074219 519.960938 " fill-opacity="1" fill-rule="nonzero"/></svg>