<svg xmlns="http://www.w3.org/2000/svg" xmlns:xlink="http://www.w3.org/1999/xlink" width="1920" zoomAndPan="magnify" viewBox="0 0 1440 809.999993" height="1080" preserveAspectRatio="xMidYMid meet" version="1.0"><defs><g/></defs><rect x="-144" width="1728" fill="#ffffff" y="-80.999999" height="971.999992" fill-opacity="1"/><rect x="-144" width="1728" fill="#ff5757" y="-80.999999" height="971.999992" fill-opacity="1"/><g fill="#ff5757" fill-opacity="1"><g transform="translate(737.850545, 521.732394)"><g><path d="M 1.046875 5.0625 C 2.003906 4.4375 2.816406 3.707031 3.484375 2.875 C 4.148438 2.039062 4.492188 1.128906 4.515625 0.140625 C 3.859375 0.140625 3.34375 -0.0351562 2.96875 -0.390625 C 2.601562 -0.753906 2.421875 -1.226562 2.421875 -1.8125 C 2.421875 -2.382812 2.597656 -2.851562 2.953125 -3.21875 C 3.316406 -3.59375 3.800781 -3.78125 4.40625 -3.78125 C 5.050781 -3.78125 5.578125 -3.550781 5.984375 -3.09375 C 6.390625 -2.644531 6.59375 -1.9375 6.59375 -0.96875 C 6.59375 0.757812 6.21875 2.210938 5.46875 3.390625 C 4.726562 4.566406 3.632812 5.644531 2.1875 6.625 Z M 1.046875 5.0625 "/></g></g></g></svg>